<?xml version="1.0" encoding="utf-8"?>
<!-- Generator: Adobe Illustrator 19.1.0, SVG Export Plug-In . SVG Version: 6.00 Build 0)  -->
<svg version="1.1" id="Layer_1" xmlns="http://www.w3.org/2000/svg" xmlns:xlink="http://www.w3.org/1999/xlink" x="0px" y="0px"
	 viewBox="0 0 46.2 45.9" style="enable-background:new 0 0 46.2 45.9;" xml:space="preserve">
<style type="text/css">
	.st0{fill:#FFFFFF;}
</style>
<path class="st0" d="M10.5,45.9c-1.8,0-4.4-0.7-7.2-3.5c-5.1-5.1-2.7-9.4-2.6-9.6l0.1-0.2l13-12.8C13.2,16.8,12.2,9,17.7,4
	c6.8-6.1,15.2-3.7,16.8-2.5l2,1.4l-1.8,1.7c-2.5,2.4-5.7,5.8-7,7.3l1,5.6L34,19l9.2-8.7l1.3,2.1c1.7,2.9,3.6,10.1-2,16.4
	c-4.5,5.1-12.6,4.1-15.7,3.5l-13.2,13l-0.2,0.1C13.2,45.4,12.1,45.9,10.5,45.9z M4.1,35c-0.1,0.5-0.4,2.2,2,4.6
	c2.6,2.6,4.5,2.4,5.1,2.3l14.3-14.1l1.1,0.3c0.1,0,9,2.4,12.8-2c3.1-3.5,3-7,2.5-9.3l-6.8,6.5l-9.9-2.7l-1.8-10l0.7-0.7
	c0.1-0.2,2.7-3,5.4-5.8c-2.4-0.2-6,0.1-9.1,2.9C15.5,11.4,18,19.8,18,19.8l0.3,1.2l-0.9,0.8L4.1,35z"/>
</svg>
