<?xml version="1.0" encoding="utf-8"?>
<!-- Generator: Adobe Illustrator 15.0.0, SVG Export Plug-In . SVG Version: 6.00 Build 0)  -->
<!DOCTYPE svg PUBLIC "-//W3C//DTD SVG 1.1//EN" "http://www.w3.org/Graphics/SVG/1.1/DTD/svg11.dtd">
<svg version="1.1" id="Layer_1" xmlns="http://www.w3.org/2000/svg" xmlns:xlink="http://www.w3.org/1999/xlink" x="0px" y="0px"
	 width="107.96px" height="79.998px" viewBox="0 0 107.96 79.998" enable-background="new 0 0 107.96 79.998" xml:space="preserve">
<path fill-rule="evenodd" clip-rule="evenodd" fill="#FFFFFF" d="M44.446,75.788c0,0,0.759-1.403,1.82-2.807
	s2.123-3.118,2.729-5.146c0.607-2.026,1.062-2.65,2.275-2.338c1.213,0.312,5.763-4.366,8.189-8.421
	c2.427-4.054,4.095-7.173,3.64-8.421c-0.454-1.247-2.578-1.402-5.46-2.806c-2.881-1.404-6.521-2.808-8.189-5.146
	c-0.91-1.091-3.336,2.184-3.64,4.21c-0.123,0.819-1.804,4.496-4.095,7.485c-2.042,2.665-4.476,4.482-8.19,7.952
	c-2.428,2.27-5.01,5.392-8.189,7.484c-6.875,4.51-8.3,5.033-10.681,6.325c-0.666,0.36-1.838,0.338-2.699,1.019
	c-2.73,2.184-8.971,4.819-11.094,4.819c-1.972,0-0.152-2.026,1.365-3.742s3.488-7.797,5.005-7.484
	c1.517,0.312,2.881,1.715,5.005-0.469c0.802-0.824,3.205-2.923,5.46-5.612c1.971-2.353,3.991-5.424,5.542-8.753
	c1.536-3.3,3.429-6.566,5.378-9.492c0.539-1.275,1.92-3.828,2.287-4.926c0.043-0.356,0.43-1.6,0.468-1.928
	c0.669-5.766,0.94-7.306,7.493-12.047c0.866-0.626,2.153-1.233,2.928-1.82c6.548-4.952,9.475-8.381,11.848-9.218
	c1.062-1.287,0.455-1.988-0.91-1.871c-1.934,0.468-8.038,0.312-14.104,3.274c-6.066,2.963-9.706,3.274-11.374,4.678
	c-1.668,1.403-5.005,3.119-4.095,1.403c0.91-1.715,2.275-3.742,4.095-4.21c1.82-0.468,5.459-3.274,5.459-3.274
	s6.673-4.054,12.739-6.55c3.792-1.559,6.977-1.715,10.01-2.807c3.033-1.091,16.588-1.559,18.104,2.34
	c0.222,0.304,0.409,0.652,0.909,0.467C75.003,7.762,74.93,7.49,74.93,7.49s-0.076-7.018,7.279-7.484
	c8.645-0.312,9.63,12.63,2.274,14.969c-6.521,2.184-8.189-1.871-8.189-1.871s0.485,1.099,0.455,1.871
	c0.152,1.638,0.758-0.312,1.365,5.146c0.406,3.649,1.609,6.533,3.64,7.953c1.007,0.703,2.483,0.573,3.64,0.936
	c4.096,0.155,9.403-0.312,12.74-1.871c3.336-1.56,8.947-2.808,9.555-2.808c0.48-0.135,0.32,0.731-0.455,1.403
	c-0.568,0.493-2.238,2.197-2.275,2.34c-0.1,0.379-4.824,0.943-5.704,1.678c-0.297,0.249-0.761,0.29-2.03,1.128
	c-2.779,1.836-7.443,4.132-14.104,3.275c-7.432-0.312-8.493-4.678-10.465-8.888c-0.909-1.871-1.364-1.56-1.819-0.937
	c-0.455,0.624-1.973,3.119-8.645,5.614c-2.578,0.935-5.461,3.118-3.186,3.742s7.887,3.431,13.649,9.824
	c1.669,3.118,1.365,5.613,0,6.549c-1.364,0.936-3.488,8.576-14.104,16.841c-5.156,4.834-6.218,3.586-8.645,6.081
	C47.479,75.475,43.384,78.906,44.446,75.788z"/>
</svg>
