<?xml version="1.0" encoding="utf-8"?>
<!-- Generator: Adobe Illustrator 16.0.5, SVG Export Plug-In . SVG Version: 6.00 Build 0)  -->
<!DOCTYPE svg PUBLIC "-//W3C//DTD SVG 1.1//EN" "http://www.w3.org/Graphics/SVG/1.1/DTD/svg11.dtd">
<svg version="1.1" id="Layer_1" xmlns="http://www.w3.org/2000/svg" xmlns:xlink="http://www.w3.org/1999/xlink" x="0px" y="0px"
	 width="73.007px" height="72.981px" viewBox="0 0 73.007 72.981" enable-background="new 0 0 73.007 72.981" xml:space="preserve">
<path fill="#FFFFFA" d="M24.809,71.151c2.206,0.762,5.459,1.383,8.798,1.666c1.284,0.109,2.538,0.164,3.728,0.164
	c2.568,0,4.727-0.259,6.258-0.75c8.83-9.446,10.979-21.461,11.223-29.891c0.227-7.846-1.1-14.107-1.508-15.819
	c-0.5,0.023-1.361,0.076-2.424,0.188c-1.455,0.154-3.572,0.453-5.68,1.014c1.82,8.985-1.203,19.395-8.769,30.152
	C31.785,64.488,26.685,69.423,24.809,71.151z M57.301,26.685c2.678,14.655,0.467,26.037-1.881,33.04
	c-1.676,4.999-3.619,8.489-4.82,10.376c5.824-2.387,10.666-5.961,14.418-10.643c3.865-4.824,5.188-9.091,5.559-10.594
	c-3.164-5.514-5.266-11.158-6.477-14.943c-1.053-3.284-1.621-5.719-1.824-6.654c-0.543-0.084-1.545-0.235-2.557-0.362
	C58.646,26.771,57.816,26.695,57.301,26.685z M4.399,54.124c1.731,3.317,4.417,6.742,7.598,9.679
	c2.824,2.607,5.855,4.636,8.187,5.487c3.059-2.357,6.819-6.112,10.124-10.113c2.888-3.498,6.864-8.91,9.405-14.83
	c2.277-5.301,2.531-9.382,2.344-11.873c-0.135-1.789-0.51-3.023-0.736-3.631c-8.015,2.071-16.787,7.871-22.789,12.421
	C11.261,46.776,6.049,51.941,4.399,54.124z M1.58,25.536c-0.488,0.928-1.383,4.386-1.553,9.284
	c-0.139,4.006,0.188,9.798,2.446,15.119c4.638-4.712,10.897-10.019,16.917-14.331c5.313-3.807,12.981-8.66,19.873-10.625
	c-0.881-1.072-3.048-3.206-7.122-4.463c-2.183-0.674-4.645-1.015-7.315-1.015C18.273,19.505,10.453,21.534,1.58,25.536z
	 M66.354,28.055c0.215,1.061,0.646,3.006,1.336,5.314c0.865,2.893,2.309,6.9,4.422,10.312c0.213-0.889,0.48-2.183,0.666-3.696
	c0.322-2.601,0.463-6.39-0.658-9.795c-0.994-0.656-2.418-1.254-4.137-1.735C67.355,28.279,66.787,28.147,66.354,28.055z
	 M65.318,23.794c0.254,0.078,0.609,0.166,1,0.261c0.291,0.071,0.617,0.152,0.977,0.246c0.898,0.234,2.213,0.604,3.814,1.228
	c-0.293-2.346-1.473-4.805-2.473-6.544c-1.037-1.8-2.354-3.623-3.611-5.024c-0.049,2.121-0.02,4.406,0.09,6.693
	C65.186,22.127,65.271,23.247,65.318,23.794z M24.78,15.585c8.298,0,14.548,2.874,18.585,8.544l2.799-0.414
	c1.646-0.242,3.717-0.544,5.67-0.822c-0.568-1.498-2.189-5.285-5.389-9.262C42.666,8.935,35.856,3.013,24.844,1.414
	c-3.71,1.184-8.171,3.796-11.965,7.009c-3.014,2.553-6.91,6.584-8.996,11.689c3.561-1.349,10.299-3.736,17.414-4.368
	C22.487,15.639,23.659,15.585,24.78,15.585z M56.191,22.54L61.533,23c-0.092-0.86-0.244-2.402-0.371-4.247
	c-0.178-2.555-0.34-6.222-0.129-9.367c-2.223-2.276-6.914-4.898-12.072-6.732C45.557,1.443,40.338,0,34.808,0
	c-0.263,0-0.523,0.003-0.782,0.01c2.5,0.865,5.883,2.362,9.334,4.873C49.324,9.225,53.641,15.163,56.191,22.54z"/>
</svg>
