<?xml version="1.0" encoding="utf-8"?>
<!-- Generator: Adobe Illustrator 19.1.0, SVG Export Plug-In . SVG Version: 6.00 Build 0)  -->
<svg version="1.1" id="Layer_1" xmlns="http://www.w3.org/2000/svg" xmlns:xlink="http://www.w3.org/1999/xlink" x="0px" y="0px"
	 viewBox="0 0 52.6 42.9" style="enable-background:new 0 0 52.6 42.9;" xml:space="preserve">
<style type="text/css">
	.st0{fill:#FFFFFF;}
</style>
<path class="st0" d="M51,23.9l-0.1-0.2l-4.5-13.3l-0.3-0.5c-0.1-0.1-1.5-1.6-3.8-2.6l-2.5-5.6l-0.4-0.6c-0.2-0.2-2.5-1.5-5.2-1
	c-1.7,0.3-3.1,1-4.2,3l-0.2,0.6c0,0.1,0-0.4-0.1,6c-1,0.9-1.1,1.9-1.6,2.6c-1.3-0.4-2.6-0.3-3.7,0.1c0,0,0-0.1,0-0.1
	c-0.4-0.8-0.5-1.7-1.6-2.6c-0.1-6.4-0.1-5.9-0.1-6l-0.2-0.6c-1-2-2.4-2.6-4.2-3c-2.7-0.5-5,0.8-5.2,1l-0.4,0.6l-2.5,5.6
	c-2.3,1-3.7,2.5-3.8,2.6l-0.3,0.5L1.6,23.8l-0.1,0.2C0.6,25.7,0,27.8,0,30c0,7.1,5.8,12.9,12.9,12.9c7.1,0,12.9-5.8,12.9-12.9
	c0-2.3-0.6-4.4-1.6-6.2c0.9-0.6,2.6-1.3,4.4,0c-1,1.9-1.6,4-1.6,6.3c0,7.1,5.8,12.9,12.9,12.9c7.1,0,12.9-5.8,12.9-12.9
	C52.6,27.8,52,25.7,51,23.9z M12.9,39.9C7.4,39.9,3,35.5,3,30c0-5.4,4.4-9.9,9.9-9.9c5.4,0,9.9,4.4,9.9,9.9
	C22.7,35.5,18.3,39.9,12.9,39.9z M22.9,21l1.2-4.3c0,0,0.1-0.4,0.2-1c0.9-0.5,2.4-1,4-0.1c0.1,0.6,0.2,1,0.2,1l1.2,4.2
	C27.2,19.5,24.7,20.1,22.9,21z M39.7,39.9c-5.4,0-9.9-4.4-9.9-9.9c0-5.4,4.4-9.9,9.9-9.9c5.4,0,9.9,4.4,9.9,9.9
	C49.6,35.5,45.2,39.9,39.7,39.9z"/>
</svg>
