<?xml version="1.0" encoding="utf-8"?>
<!-- Generator: Adobe Illustrator 19.1.0, SVG Export Plug-In . SVG Version: 6.00 Build 0)  -->
<svg version="1.1" id="Layer_1" xmlns="http://www.w3.org/2000/svg" xmlns:xlink="http://www.w3.org/1999/xlink" x="0px" y="0px"
	 width="55.6px" height="45px" viewBox="0 0 55.6 45" style="enable-background:new 0 0 55.6 45;" xml:space="preserve">
<style type="text/css">
	.st0{fill:#FFFFFF;}
</style>
<g>
	<g>
		<path class="st0" d="M27.9,23.6c-6.5,0-11.8-5.3-11.8-11.8S21.4,0,27.9,0s11.8,5.3,11.8,11.8S34.4,23.6,27.9,23.6z M27.9,4
			c-4.3,0-7.8,3.5-7.8,7.8s3.5,7.8,7.8,7.8s7.8-3.5,7.8-7.8S32.2,4,27.9,4z"/>
		<path class="st0" d="M42,45H13.3c-1.1,0-2-0.9-2-2v-8.8c0-0.5,0.2-0.9,0.5-1.3l5.2-6c0.6-0.7,1.5-0.9,2.3-0.5c0,0,4.9,2.2,8.4,2.2
			s8.6-2.2,8.7-2.2c0.8-0.4,1.8-0.1,2.4,0.6l4.8,6.1c0.3,0.4,0.4,0.8,0.4,1.2V43C44,44.1,43.1,45,42,45z M15.3,41H40v-6l-3.4-4.4
			c-2,0.8-5.8,2-8.9,2s-6.7-1.2-8.6-2l-3.8,4.3V41L15.3,41z"/>
	</g>
	<g>
		<path class="st0" d="M49.4,16.9c0-4-2.8-7.3-6.6-8.1c0.2,1.3,0.3,2.8,0.2,4.3c1.4,0.7,2.4,2.2,2.4,3.8c0,2.4-1.9,4.3-4.3,4.3
			c-0.4,0-0.7-0.1-1.1-0.2c-0.4,0.5-0.8,1-1.2,1.5c0.3,0.3,1.3,1.4,2.5,2.7C45.8,25.1,49.4,21.4,49.4,16.9z"/>
		<path class="st0" d="M54.6,29.6l-6.8-3.9c-0.5-0.3-1.2-0.4-1.8-0.1s-2,0.8-3.4,1.1c1.3,1.4,2.5,2.7,3,3.3c0.4-0.1,0.7-0.2,1-0.4
			l5,2.8v2.4h-4.2c0,0.4,0,0.8,0,1.3v2.7h6.2c1.1,0,2-0.9,2-2v-5.6C55.6,30.6,55.2,29.9,54.6,29.6z"/>
	</g>
	<g>
		<path class="st0" d="M13.3,8.8c-4,0.6-7,4-7,8.2c0,4.5,3.6,8.2,8.1,8.3c1.3-1.5,2.5-2.7,2.8-3c-0.4-0.4-0.7-0.9-1-1.3
			c-0.5,0.2-1,0.3-1.6,0.3c-2.4,0-4.3-1.9-4.3-4.3c0-1.9,1.3-3.5,3-4.1c-0.1-1.1-0.2-2.1-0.1-3C13.2,9.5,13.3,9.2,13.3,8.8z"/>
		<path class="st0" d="M8.3,36.3c0-0.5,0-0.9,0-1.3H4v-2.4l5-2.8c0.3,0.1,0.7,0.2,1.1,0.4c0.5-0.6,1.7-1.9,3-3.3
			c-1.4-0.3-2.9-0.8-3.5-1.1c-0.6-0.2-1.2-0.2-1.8,0.1L1,29.8c-0.6,0.4-1,1-1,1.7v5.6c0,1.1,0.9,2,2,2h6.3V36.3L8.3,36.3z"/>
	</g>
</g>
</svg>
