<?xml version="1.0" encoding="utf-8"?>
<!-- Generator: Adobe Illustrator 15.0.0, SVG Export Plug-In . SVG Version: 6.00 Build 0)  -->
<!DOCTYPE svg PUBLIC "-//W3C//DTD SVG 1.1//EN" "http://www.w3.org/Graphics/SVG/1.1/DTD/svg11.dtd">
<svg version="1.1" id="Layer_1" xmlns="http://www.w3.org/2000/svg" xmlns:xlink="http://www.w3.org/1999/xlink" x="0px" y="0px"
	 width="74.775px" height="74.778px" viewBox="0 0 74.775 74.778" enable-background="new 0 0 74.775 74.778" xml:space="preserve">
<path fill="#FFFFFF" d="M69.729,31.261c-0.859-4.54-2.639-8.757-5.158-12.436c1.631-2.424,1.383-5.745-0.759-7.885
	c-2.069-2.068-5.483-2.314-7.88-0.747c-3.684-2.52-7.906-4.299-12.451-5.153C42.923,2.172,40.397-0.002,37.368,0
	c-3.029,0.001-5.554,2.178-6.108,5.045c-4.544,0.86-8.762,2.642-12.443,5.166c-2.398-1.564-5.815-1.311-7.879,0.756
	c-2.142,2.142-2.387,5.465-0.751,7.887c-2.517,3.682-4.292,7.899-5.147,12.442C2.172,31.852-0.002,34.379,0,37.408
	c0.001,3.029,2.178,5.554,5.045,6.108c0.86,4.543,2.64,8.759,5.16,12.44c-1.632,2.423-1.382,5.746,0.762,7.886
	c1.176,1.176,2.743,1.821,4.405,1.82c1.261,0,2.463-0.376,3.484-1.068c3.681,2.516,7.898,4.289,12.438,5.145
	c0.558,2.866,3.084,5.041,6.114,5.039s5.553-2.179,6.107-5.046c4.541-0.859,8.756-2.638,12.432-5.156
	c1.022,0.69,2.227,1.065,3.486,1.064c1.664-0.001,3.229-0.646,4.406-1.825c2.141-2.143,2.387-5.468,0.75-7.89
	c2.518-3.68,4.293-7.901,5.147-12.443c2.866-0.558,5.04-3.084,5.039-6.113S72.597,31.815,69.729,31.261z M70.222,39.399
	c-0.463,0.383-1.032,0.643-1.677,0.643c-0.73,0-1.393-0.297-1.877-0.773c-0.488-0.483-0.794-1.152-0.794-1.895
	c-0.001-0.743,0.305-1.411,0.792-1.896c0.483-0.478,1.146-0.775,1.876-0.775c0.645-0.001,1.215,0.258,1.677,0.641
	c0.594,0.488,0.994,1.201,0.994,2.027C71.214,38.197,70.814,38.911,70.222,39.399z M66.185,31.713
	c-1.726,0.707-3.04,1.707-3.584,4.08l-14.693,0.008c-0.273-2.374-0.91-3.213-1.826-4.5l10.384-10.44
	c0.898,0.486,1.897,0.743,2.946,0.742c0.839-0.001,1.652-0.129,2.401-0.443C63.909,24.293,65.421,27.889,66.185,31.713z
	 M37.405,71.215c-0.827,0.001-1.54-0.398-2.029-0.991c-0.382-0.463-0.642-1.032-0.643-1.677c0-0.73,0.297-1.393,0.774-1.877
	c0.483-0.488,1.152-0.794,1.895-0.795c0.741-0.001,1.41,0.305,1.896,0.793c0.479,0.483,0.775,1.146,0.775,1.876
	c0,0.645-0.258,1.215-0.641,1.678C38.944,70.814,38.231,71.215,37.405,71.215z M37.37,3.562c0.826,0,1.539,0.398,2.027,0.991
	c0.384,0.463,0.643,1.032,0.644,1.677c0.001,0.73-0.297,1.394-0.774,1.877c-0.482,0.488-1.152,0.794-1.895,0.795
	c-0.742,0-1.41-0.306-1.895-0.793c-0.478-0.483-0.775-1.146-0.775-1.876c0-0.645,0.258-1.214,0.641-1.677
	C35.831,3.963,36.543,3.562,37.37,3.562z M44.508,37.385c0.001,0.618-0.104,1.208-0.25,1.781c-0.169,0.646-0.425,1.252-0.757,1.813
	c-0.612,1.041-1.475,1.904-2.514,2.52c-0.563,0.333-1.17,0.588-1.814,0.758c-0.574,0.148-1.164,0.252-1.781,0.253
	c-0.619,0-1.207-0.104-1.782-0.251c-0.645-0.169-1.252-0.424-1.814-0.756c-1.042-0.613-1.904-1.475-2.519-2.516
	c-0.333-0.562-0.587-1.169-0.758-1.814c-0.147-0.572-0.251-1.163-0.251-1.78c0-0.619,0.104-1.207,0.25-1.779
	c0.17-0.647,0.425-1.255,0.756-1.819c0.614-1.039,1.477-1.901,2.519-2.516c0.56-0.333,1.167-0.587,1.812-0.759
	c0.574-0.147,1.163-0.251,1.781-0.251c0.618-0.001,1.207,0.104,1.781,0.249c0.646,0.171,1.252,0.425,1.814,0.757
	c1.041,0.613,1.903,1.475,2.518,2.517c0.333,0.561,0.589,1.168,0.759,1.815C44.403,36.179,44.508,36.767,44.508,37.385z
	 M59.147,12.729c0.089-0.01,0.17-0.052,0.262-0.052c0.711,0,1.383,0.277,1.887,0.781c0.588,0.589,0.808,1.378,0.73,2.15
	c-0.058,0.59-0.276,1.174-0.729,1.626c-0.512,0.511-1.209,0.758-1.908,0.755c-0.685-0.004-1.369-0.252-1.867-0.753
	c-0.521-0.521-0.781-1.206-0.781-1.893c0-0.682,0.258-1.364,0.779-1.881C57.958,13.022,58.536,12.791,59.147,12.729z M53.948,18.29
	L43.464,28.688c-1.285-0.915-2.125-1.55-4.5-1.821l-0.007-14.695c2.374-0.544,3.371-1.861,4.076-3.586
	c3.83,0.762,7.442,2.269,10.581,4.365C52.897,14.67,53.059,16.634,53.948,18.29z M31.316,8.591c0.707,1.725,2.102,3.04,3.685,3.583
	l0.007,14.695c-1.583,0.273-2.816,0.909-4.1,1.826L20.658,18.307c0.892-1.656,0.926-3.621,0.207-5.339
	C24.001,10.868,27.487,9.357,31.316,8.591z M13.456,13.483c0.506-0.505,1.174-0.784,1.89-0.784c0.09,0,0.17,0.043,0.258,0.05
	c0.61,0.062,1.188,0.292,1.628,0.732c0.521,0.519,0.78,1.382,0.782,2.064c0.002,0.685-0.256,1.28-0.775,2.072h-0.002
	c-0.002,0-0.004-0.178-0.004-0.176c-0.498,0.497-1.182,0.654-1.865,0.66c-0.7,0.005-1.399-0.286-1.909-0.797
	c-0.452-0.451-0.673-1.058-0.731-1.653C12.65,14.883,12.868,14.071,13.456,13.483z M12.946,21.124
	c0.751,0.313,1.565,0.478,2.403,0.478c1.051-0.001,2.048-0.287,2.945-0.772l10.393,10.48c-0.915,1.288-1.55,2.129-1.821,4.502
	l-14.693,0.008c-0.545-2.373-1.862-3.372-3.588-4.077C9.344,27.918,10.852,24.259,12.946,21.124z M3.562,37.406
	c0-0.827,0.398-1.539,0.992-2.028c0.462-0.382,1.032-0.643,1.677-0.643c0.73-0.001,1.393,0.296,1.876,0.773
	c0.488,0.483,0.794,1.152,0.794,1.895c0,0.742-0.305,1.411-0.792,1.895c-0.483,0.479-1.146,0.775-1.876,0.776
	c-0.645,0-1.215-0.259-1.677-0.642C3.962,38.946,3.562,38.233,3.562,37.406z M8.59,43.46c1.726-0.707,3.041-2.102,3.583-3.685
	l14.694-0.007c0.275,1.582,0.909,2.816,1.826,4.102L18.293,54.135c-1.635-0.839-3.608-0.872-5.311-0.2
	C10.875,50.795,9.358,47.299,8.59,43.46z M15.613,62.035c-0.772,0.065-1.565-0.146-2.13-0.712c-0.59-0.588-0.807-1.381-0.732-2.149
	c0.06-0.592,0.277-0.967,0.73-1.419c0.503-0.502,1.171-0.572,1.882-0.572c0.003,0,0.004,0,0.006,0c0.713,0,1.386,0.066,1.888,0.572
	c0.522,0.521,0.781,1.1,0.781,1.787c0,0.68-0.26,1.311-0.78,1.83C16.816,61.817,16.22,61.98,15.613,62.035z M20.827,56.485
	l10.09-10.396c1.285,0.916,2.52,1.55,4.103,1.821l0.007,14.695c-1.582,0.546-2.976,1.86-3.681,3.588
	c-3.83-0.762-7.241-2.271-10.376-4.366C21.685,60.107,21.72,58.143,20.827,56.485z M43.063,66.188
	c-0.707-1.727-1.706-3.041-4.08-3.584l-0.008-14.695c2.373-0.275,3.213-0.909,4.5-1.825L53.92,56.467
	c-0.487,0.897-0.747,1.896-0.747,2.946c0.001,0.84,0.129,1.651,0.445,2.4C50.483,63.911,46.888,65.423,43.063,66.188z
	 M61.318,61.295c-0.563,0.564-1.356,0.779-2.128,0.712c-0.608-0.05-0.992-0.266-1.439-0.71c-0.502-0.501-0.57-1.169-0.57-1.882
	c0-0.002,0-0.002,0-0.004c0-0.713,0.066-1.172,0.569-1.678c0.505-0.506,0.966-0.574,1.678-0.574c0.001,0,0.005,0,0.005,0
	c0.71,0,1.38,0.066,1.886,0.572c0.451,0.453,0.67,0.93,0.729,1.521C62.124,60.021,61.907,60.708,61.318,61.295z M61.81,53.687
	c-1.703-0.671-3.676-0.561-5.309,0.279L46.088,43.858c0.915-1.285,1.548-2.52,1.821-4.102l14.695-0.008
	c0.545,1.582,1.86,2.976,3.587,3.682C65.427,47.27,63.914,50.542,61.81,53.687z"/>
</svg>
