<?xml version="1.0" encoding="utf-8"?>
<!-- Generator: Adobe Illustrator 15.0.0, SVG Export Plug-In . SVG Version: 6.00 Build 0)  -->
<!DOCTYPE svg PUBLIC "-//W3C//DTD SVG 1.1//EN" "http://www.w3.org/Graphics/SVG/1.1/DTD/svg11.dtd">
<svg version="1.1" id="Layer_1" xmlns="http://www.w3.org/2000/svg" xmlns:xlink="http://www.w3.org/1999/xlink" x="0px" y="0px"
	 width="69.327px" height="72.274px" viewBox="0 0 69.327 72.274" enable-background="new 0 0 69.327 72.274" xml:space="preserve">
<g>
	<g>
		<path fill="#FFFFFF" d="M47.543,46.664c-2.002-0.876-7.547-2.36-8.213-4.883c-1.049-3.986,2.924-7.025,4.69-10.164
			c1.858-3.311,3.407-7.79,3.71-11.534c1.084-13.436-7.158-21.295-18.966-19.93c-8.586,0.99-13.713,7.395-14.264,15.64
			c-0.561,8.399,2.558,14.604,5.87,19.152c1.449,1.99,2.969,3.271,2.739,5.669c-0.273,2.834-3.303,3.625-5.471,4.496
			c-2.571,1.035-5.336,2.603-6.645,3.326c-4.501,2.489-9.442,5.485-10.552,9.58C-2.017,67.097,6.292,69.843,13.15,71.11
			c5.888,1.084,12.522,1.166,17.982,1.164c9.872-0.003,27.628-0.403,30.489-7.824c0.813-2.108,0.462-5.465-0.002-6.844
			C59.821,52.255,52.652,48.907,47.543,46.664z M68.482,33.91l-4.169,0.001l-0.002-4.169c0-0.465-0.377-0.843-0.844-0.843l-2.741,0
			c-0.468,0.001-0.844,0.379-0.843,0.844v4.168l-4.17,0.001c-0.465,0-0.842,0.378-0.842,0.846l0.001,2.741
			c0,0.468,0.378,0.844,0.843,0.844l4.17-0.001l0.002,4.171c0,0.465,0.376,0.842,0.844,0.841l2.741-0.001
			c0.466,0,0.843-0.376,0.843-0.841l-0.001-4.172l4.169-0.001c0.465,0,0.844-0.377,0.844-0.845v-2.741
			C69.327,34.287,68.946,33.91,68.482,33.91z"/>
	</g>
</g>
</svg>
