<?xml version="1.0" encoding="utf-8"?>
<!-- Generator: Adobe Illustrator 15.0.0, SVG Export Plug-In . SVG Version: 6.00 Build 0)  -->
<!DOCTYPE svg PUBLIC "-//W3C//DTD SVG 1.1//EN" "http://www.w3.org/Graphics/SVG/1.1/DTD/svg11.dtd">
<svg version="1.1" id="Layer_1" xmlns="http://www.w3.org/2000/svg" xmlns:xlink="http://www.w3.org/1999/xlink" x="0px" y="0px"
	 width="47.302px" height="47.121px" viewBox="0 0 47.302 47.121" enable-background="new 0 0 47.302 47.121" xml:space="preserve">
<g>
	<g>
		<path fill-rule="evenodd" clip-rule="evenodd" fill="#FFFFFF" d="M23.651,0C10.589,0,0,10.549,0,23.561
			c0,13.013,10.589,23.561,23.651,23.561s23.651-10.548,23.651-23.561C47.302,10.549,36.713,0,23.651,0z M40.919,12.154
			c0,0,3.038,3.297,3.566,10.472l-3.941-4.675L40.919,12.154z M39.23,9.536l-0.751,8.041l-4.881,2.617l-9.197-6.544l0.188-6.171
			c0,0,4.429-2.126,7.32-3.179C36.3,6.399,39.23,9.536,39.23,9.536z M31.909,21.69l-3.19,10.098H18.207L15.016,21.69l8.447-6.17
			L31.909,21.69z M28.972,3.367l-5.58,2.338L17.859,3.37C17.859,3.37,21.584,1.751,28.972,3.367z M15.054,4.306
			c2.902,1.02,7.353,3.092,7.353,3.092l0.228,6.146l-9.168,6.614L8.561,17.6L7.756,9.597C7.756,9.597,10.67,6.442,15.054,4.306z
			 M5.592,12.178l0.559,6.005l-3.902,4.553C2.249,22.735,1.822,18.709,5.592,12.178z M2.821,25.617
			c0.994-0.885,5.066-5.983,5.066-5.983l5.253,2.805l3.189,9.911l-3.002,3.553l-8.068-1.87C5.26,34.032,2.662,28.559,2.821,25.617z
			 M6.921,36.628l5.916,1.276l3.184,5.077C16.021,42.981,12.038,42.176,6.921,36.628z M18.958,43.942l-3.942-6.731l2.816-3.366
			h11.263l2.814,3.18l-3.941,6.918C23.424,45.341,18.958,43.942,18.958,43.942z M30.972,43.194l3.003-5.235l5.819-1.496
			C39.794,36.463,37.823,40.004,30.972,43.194z M41.858,34.032l-8.072,1.87l-3.002-3.553l3.19-9.911l5.256-2.805
			c0,0,4.073,5.099,5.067,5.983C44.458,28.559,41.858,34.032,41.858,34.032z"/>
	</g>
</g>
</svg>
