<?xml version="1.0" encoding="utf-8"?>
<!-- Generator: Adobe Illustrator 15.0.0, SVG Export Plug-In . SVG Version: 6.00 Build 0)  -->
<!DOCTYPE svg PUBLIC "-//W3C//DTD SVG 1.1//EN" "http://www.w3.org/Graphics/SVG/1.1/DTD/svg11.dtd">
<svg version="1.1" id="Layer_1" xmlns="http://www.w3.org/2000/svg" xmlns:xlink="http://www.w3.org/1999/xlink" x="0px" y="0px"
	 width="78.807px" height="57.466px" viewBox="0 0 78.807 57.466" enable-background="new 0 0 78.807 57.466" xml:space="preserve">
<path fill-rule="evenodd" clip-rule="evenodd" stroke="#ACACAC" stroke-miterlimit="10" d="M0.7,0.7v56.065h77.406
	V0.7H0.7z M76.07,54.817H2.649V2.527H76.07V54.817z"/>
<path fill-rule="evenodd" clip-rule="evenodd" stroke="#ACACAC" stroke-miterlimit="10" d="M14.341,37.931
	c3.619-1.518,6.17-5.156,6.17-9.408c0-4.251-2.552-7.887-6.17-9.405 M14.341,21.486c2.338,1.455,3.898,4.051,3.898,7.018
	c0,2.966-1.56,5.564-3.898,7.018 M64.033,19.015c-3.956,1.358-6.808,5.157-6.808,9.641c0,4.483,2.852,8.283,6.808,9.641
	 M64.033,35.804c-2.503-1.421-4.195-4.103-4.195-7.183s1.691-5.762,4.195-7.184 M41.298,19.303c4.085,0.892,7.145,4.529,7.145,8.882
	c0,4.353-3.06,7.99-7.145,8.882 M37.725,37.131c-4.247-0.766-7.47-4.479-7.47-8.946c0-4.468,3.223-8.181,7.47-8.946 M41.298,16.987
	V2.527h-3.573v14.408 M37.725,16.935c-5.508,0.788-9.743,5.523-9.743,11.25c0,5.726,4.235,10.462,9.743,11.25v0.032v15.35h3.573
	V39.43v-0.048c5.349-0.925,9.419-5.584,9.419-11.197s-4.07-10.273-9.419-11.198 M37.725,19.239v17.893 M41.298,37.067V19.303
	 M64.033,38.296v5.478l12.017,0.002V41.83H65.982V15.522H76.05V13.57H64.033v5.445 M64.033,21.437v14.367 M71.178,21.689v14.615
	h4.872v-2.27h-2.601V23.96h2.601v-2.271H71.178z M14.341,19.118V13.57H2.649v1.953h9.241V41.83H2.649v1.945h11.692v-5.843
	 M14.341,35.522V21.486 M7.596,21.689H3.049v2.271h2.276v10.075H3.049v2.27h4.547V21.689z"/>
</svg>
