<?xml version="1.0" encoding="utf-8"?>
<!-- Generator: Adobe Illustrator 16.0.5, SVG Export Plug-In . SVG Version: 6.00 Build 0)  -->
<!DOCTYPE svg PUBLIC "-//W3C//DTD SVG 1.1//EN" "http://www.w3.org/Graphics/SVG/1.1/DTD/svg11.dtd">
<svg version="1.1" id="Layer_1" xmlns="http://www.w3.org/2000/svg" xmlns:xlink="http://www.w3.org/1999/xlink" x="0px" y="0px"
	 width="50px" height="50px" viewBox="0 0 50 50" enable-background="new 0 0 50 50" xml:space="preserve">
<path fill="none" d="M0.012,17.025c0,11.88,0,19.296,0,31.176c0,0.182-0.008,0.369,0.028,0.546C0.204,49.521,0.808,50,1.608,50
	c7.793,0,15.588,0,23.381,0c7.81,0,15.621,0,23.432,0c0.751-0.002,1.354-0.455,1.525-1.172c0.051-0.209,0.052-0.432,0.052-0.648
	C50,43.52,50,38.86,50,34.2v-7.903c0-10.774,0-13.645-0.002-24.418c0-0.233,0-0.475-0.055-0.699
	c-0.182-0.747-0.789-1.172-1.633-1.172C32.775,0.008,17.238,0.011,1.703,0C0.741-0.001-0.008,0.699,0,1.743
	c0.029,3.606,0.012,7.211,0.012,10.818V17.025z"/>
<g>
	<path fill-rule="evenodd" clip-rule="evenodd" fill="#FFFFFF" d="M31.04,6.14c-0.007-0.027-0.015-0.054-0.024-0.081
		c-0.109,0-0.22,0-0.328,0c-2.798,0-5.596,0.005-8.394-0.002c-1.152-0.004-2.297,0.04-3.437,0.227
		c-1.882,0.309-3.689,0.856-5.285,1.941c-2.979,2.025-4.522,4.844-4.065,8.544c0.333,2.7,1.83,4.664,4.234,5.848
		c1.384,0.682,2.864,0.902,4.395,0.766c0.245-0.021,0.491-0.03,0.74-0.044c-0.004,0.043-0.001,0.063-0.008,0.08
		c-0.042,0.116-0.083,0.233-0.13,0.348c-0.348,0.854-0.368,1.725-0.124,2.608c0.202,0.734,0.627,1.339,1.073,1.933
		c0.052,0.069,0.098,0.144,0.148,0.219c-0.912,0.093-1.786,0.172-2.657,0.271c-1.639,0.188-3.245,0.528-4.777,1.164
		c-1.729,0.718-3.263,1.717-4.309,3.35c-1.083,1.692-1.434,3.52-0.77,5.464c0.589,1.726,1.816,2.887,3.363,3.721
		c1.771,0.955,3.69,1.325,5.667,1.42c1.384,0.066,2.767,0.014,4.138-0.217c1.918-0.321,3.745-0.91,5.382-2.003
		c2.33-1.554,3.893-3.638,4.152-6.564c0.134-1.53-0.179-2.965-0.99-4.271c-0.827-1.33-2.002-2.315-3.17-3.304
		c-0.72-0.61-1.468-1.187-2.171-1.813c-0.437-0.39-0.651-0.916-0.662-1.528c-0.012-0.708,0.259-1.3,0.729-1.773
		c0.646-0.649,1.338-1.249,2.017-1.863c2.29-2.075,3.064-4.656,2.423-7.686c-0.385-1.82-1.417-3.242-2.774-4.438
		c-0.096-0.084-0.19-0.169-0.35-0.312c0.187-0.01,0.286-0.018,0.383-0.018c0.729-0.001,1.46,0.01,2.189-0.009
		c0.192-0.005,0.404-0.07,0.572-0.168c0.455-0.266,0.89-0.563,1.334-0.848C30.051,6.78,30.545,6.46,31.04,6.14z M19.844,41.835
		c0.221-0.014,0.575-0.032,0.929-0.06c1.078-0.084,2.117-0.322,3.108-0.779c3.197-1.473,3.859-5.506,1.449-7.893
		c-1.04-1.029-2.207-1.887-3.358-2.77c-0.345-0.266-0.704-0.382-1.115-0.354c-1.005,0.069-2.014,0.112-3.014,0.234
		c-1.36,0.167-2.673,0.526-3.884,1.21c-2.558,1.443-3.146,3.934-2.357,6.178c0.521,1.484,1.624,2.446,2.973,3.13
		C16.191,41.552,17.929,41.799,19.844,41.835z M19.652,22.008c0.35-0.053,0.708-0.072,1.048-0.164
		c2.265-0.608,3.184-2.084,3.382-3.921c0.131-1.213-0.011-2.405-0.288-3.58c-0.404-1.71-1.062-3.303-2.22-4.636
		c-0.83-0.955-1.838-1.603-3.105-1.714c-2.161-0.189-4.067,1.236-4.578,3.394c-0.279,1.181-0.251,2.369-0.056,3.557
		c0.283,1.727,0.834,3.349,1.859,4.771C16.674,21.074,17.929,21.953,19.652,22.008z"/>
	<path fill-rule="evenodd" clip-rule="evenodd" fill="#FFFFFF" d="M30.936,24.416c0-0.856,0-1.657,0-2.508c0.119,0,0.228,0,0.334,0
		c1.375,0,2.75-0.006,4.125,0.006c0.255,0.002,0.335-0.065,0.332-0.331c-0.011-1.416,0.002-2.831-0.011-4.247
		c-0.001-0.286,0.072-0.382,0.363-0.371c0.597,0.024,1.196,0.016,1.795,0.003c0.22-0.005,0.287,0.062,0.287,0.291
		c-0.011,1.444-0.007,2.888-0.005,4.333c0,0.093,0.008,0.187,0.014,0.317c0.127,0,0.236,0,0.345,0c1.394,0,2.788,0.006,4.181-0.005
		c0.249-0.002,0.325,0.075,0.319,0.323c-0.014,0.622-0.016,1.244,0,1.865c0.008,0.27-0.087,0.333-0.339,0.331
		c-1.402-0.011-2.806,0.001-4.208-0.011c-0.246-0.002-0.321,0.065-0.317,0.321c0.011,1.453,0,2.907,0.011,4.36
		c0.001,0.239-0.069,0.314-0.301,0.309c-0.609-0.016-1.218-0.017-1.825,0c-0.252,0.008-0.319-0.087-0.317-0.331
		c0.009-1.444,0-2.888,0.009-4.333c0.002-0.247-0.061-0.33-0.312-0.327c-1.375,0.012-2.751,0.006-4.126,0.006
		C31.18,24.416,31.071,24.416,30.936,24.416z"/>
</g>
</svg>
