<?xml version="1.0" encoding="utf-8"?>
<!-- Generator: Adobe Illustrator 19.1.0, SVG Export Plug-In . SVG Version: 6.00 Build 0)  -->
<svg version="1.1" id="Layer_1" xmlns="http://www.w3.org/2000/svg" xmlns:xlink="http://www.w3.org/1999/xlink" x="0px" y="0px"
	 viewBox="0 0 43.9 50" style="enable-background:new 0 0 43.9 50;" xml:space="preserve">
<style type="text/css">
	.st0{fill-rule:evenodd;clip-rule:evenodd;}
</style>
<g>
	<path class="st0" d="M19.2,0v21.9h5.6V0H19.2z"/>
	<path class="st0" d="M33.7,9.5c0,0-1-0.6-1.8-1v6.1c4.1,3,6.7,7.9,6.7,13.4c0,9.2-7.5,16.7-16.7,16.7c-9.2,0-16.7-7.5-16.7-16.7
		c0-5.5,2.6-10.3,6.7-13.4V8.6c-0.8,0.4-1.8,1-1.8,1C4,13.4,0,20.3,0,28C0,40.1,9.8,50,21.9,50c0,0,0,0,0,0
		c12.1,0,21.9-9.8,21.9-21.9C43.9,20.3,39.8,13.4,33.7,9.5z"/>
</g>
</svg>
