<?xml version="1.0" encoding="utf-8"?>
<!-- Generator: Adobe Illustrator 19.1.0, SVG Export Plug-In . SVG Version: 6.00 Build 0)  -->
<svg version="1.1" id="Layer_1" xmlns="http://www.w3.org/2000/svg" xmlns:xlink="http://www.w3.org/1999/xlink" x="0px" y="0px"
	 width="45.4px" height="45.4px" viewBox="0 0 45.4 45.4" style="enable-background:new 0 0 45.4 45.4;" xml:space="preserve">
<style type="text/css">
	.st0{fill:#FFFFFF;}
</style>
<g>
	<path class="st0" d="M22.7,45.4C10.2,45.4,0,35.2,0,22.7S10.2,0,22.7,0s22.7,10.2,22.7,22.7C45.4,35.2,35.2,45.4,22.7,45.4z
		 M22.7,4C12.4,4,4,12.4,4,22.7s8.4,18.7,18.7,18.7S41.4,33,41.4,22.7S33,4,22.7,4z"/>
	<path class="st0" d="M22.7,44.4c-7,0-12.4-9.5-12.4-21.7S15.7,1,22.7,1s12.4,9.5,12.4,21.7S29.7,44.4,22.7,44.4z M22.7,3
		c-5.6,0-10.4,9-10.4,19.7s4.8,19.7,10.4,19.7s10.4-9,10.4-19.7S28.3,3,22.7,3z"/>
	<rect x="2.8" y="21.7" class="st0" width="39.6" height="2"/>
	<rect x="21.7" y="2.8" class="st0" width="2" height="39.8"/>
	<path class="st0" d="M38.6,35.1c-3.5-2.3-9.7-3.7-16.2-3.7c-6.3,0-12.1,1.3-15.7,3.5l-1-1.7c3.9-2.4,10-3.7,16.7-3.7
		c6.9,0,13.4,1.5,17.2,4.1L38.6,35.1z"/>
	<path class="st0" d="M22.4,16.2c-6.7,0-12.8-1.4-16.7-3.7l1-1.7c3.5,2.2,9.4,3.5,15.7,3.5c6.5,0,12.6-1.4,16.2-3.7l1.1,1.7
		C35.8,14.7,29.3,16.2,22.4,16.2z"/>
</g>
</svg>
