<?xml version="1.0" encoding="utf-8"?>
<!-- Generator: Adobe Illustrator 19.1.0, SVG Export Plug-In . SVG Version: 6.00 Build 0)  -->
<svg version="1.1" id="Layer_1" xmlns="http://www.w3.org/2000/svg" xmlns:xlink="http://www.w3.org/1999/xlink" x="0px" y="0px"
	 width="45px" height="44.3px" viewBox="0 0 45 44.3" style="enable-background:new 0 0 45 44.3;" xml:space="preserve">
<style type="text/css">
	.st0{fill:#FFFFFF;}
</style>
<g>
	<path class="st0" d="M43.6,22.6c0.1-0.2,2.6-5.3,0.6-11C43,8.2,40.6,5.5,37,3.3l0,0l0.8-1.5L34.2,0l-0.8,1.5l0,0
		c-4-1.6-7.8-1.8-11.2-0.7c-5.6,1.9-8.1,6.9-8.2,7.1L5.9,24.5l0,0l-4.1-2L0,26.1l37.1,18.2l1.8-3.6L35.5,39l0,0L43.6,22.6z
		 M31.9,37.4l-22.4-11l8.1-16.6c0,0,1.9-3.7,5.9-5.1c2.9-1,6.3-0.5,10,1.3c10.7,5.2,6.9,13.9,6.5,14.8L31.9,37.4z"/>
	<rect x="13.2" y="37.8" transform="matrix(0.8944 0.4472 -0.4472 0.8944 19.5833 -3.3782)" class="st0" width="7.4" height="4"/>
</g>
</svg>
