<?xml version="1.0" encoding="utf-8"?>
<!-- Generator: Adobe Illustrator 19.1.0, SVG Export Plug-In . SVG Version: 6.00 Build 0)  -->
<svg version="1.1" id="Layer_1" xmlns="http://www.w3.org/2000/svg" xmlns:xlink="http://www.w3.org/1999/xlink" x="0px" y="0px"
	 width="44.8px" height="45.5px" viewBox="0 0 44.8 45.5" style="enable-background:new 0 0 44.8 45.5;" xml:space="preserve">
<style type="text/css">
	.st0{fill:#FFFFFF;}
</style>
<g>
	<path class="st0" d="M22.4,23.8c-6.6,0-11.9-5.3-11.9-11.9S15.8,0,22.4,0s11.9,5.3,11.9,11.9S29,23.8,22.4,23.8z M22.4,4
		c-4.4,0-7.9,3.5-7.9,7.9s3.5,7.9,7.9,7.9s7.9-3.5,7.9-7.9S26.8,4,22.4,4z"/>
	<path class="st0" d="M2,45.5c-1.1,0-2-0.9-2-2v-9.9c0-0.8,0.5-1.5,1.2-1.8l11.1-5.1c0.5-0.2,1.2-0.2,1.7,0c0,0,4.7,2.2,8.5,2.2
		c3,0,7.5-1.6,8.9-2.2c0.6-0.2,1.2-0.2,1.8,0.1l10.6,6.1c0.6,0.4,1,1,1,1.7v8.8c0,1.1-0.9,2-2,2H2.6C2.4,45.5,2.2,45.5,2,45.5z
		 M4,41.4h36.8v-5.6l-8.8-5c-1.9,0.7-6.1,2.2-9.5,2.2c-3.7,0-7.7-1.5-9.4-2.2L4,35V41.4z"/>
</g>
</svg>
