<?xml version="1.0" encoding="utf-8"?>
<!-- Generator: Adobe Illustrator 19.1.0, SVG Export Plug-In . SVG Version: 6.00 Build 0)  -->
<svg version="1.1" id="Layer_1" xmlns="http://www.w3.org/2000/svg" xmlns:xlink="http://www.w3.org/1999/xlink" x="0px" y="0px"
	 viewBox="0 0 41.8 44.5" style="enable-background:new 0 0 41.8 44.5;" xml:space="preserve">
<style type="text/css">
	.st0{fill:#FFFFFF;}
</style>
<path class="st0" d="M29,27.8c4.9-6.6,4.5-16.8-1.4-22.8C24.6,1.7,20.6,0,16.2,0C11.8,0,7.9,1.9,4.7,4.9C4.6,5.1,4.3,5.3,4.1,5.6
	c-5.7,6.6-5.4,17.6,0.6,23.8c3.2,3.1,7.1,4.9,11.5,4.9c2.9,0,5.7-0.8,8.1-2.3c0.2-0.1,0.3-0.2,0.5-0.3l11,11.6c0,0,1.3,2,3.3,0.8
	l2.7-2.3L29,27.8z M24.6,25.8c-2.2,2.3-5.2,3.6-8.4,3.6c-3.2,0-6.1-1.4-8.4-3.6C3.4,21.3,3.2,13.3,7.4,8.4C7.5,8.2,7.7,8.1,7.8,8
	c2.3-2.3,5.2-3.6,8.4-3.6c3.2,0,6.2,1.2,8.4,3.6C29.2,12.7,29.2,21.1,24.6,25.8z"/>
</svg>
