<?xml version="1.0" encoding="utf-8"?>
<!-- Generator: Adobe Illustrator 16.0.5, SVG Export Plug-In . SVG Version: 6.00 Build 0)  -->
<!DOCTYPE svg PUBLIC "-//W3C//DTD SVG 1.1//EN" "http://www.w3.org/Graphics/SVG/1.1/DTD/svg11.dtd">
<svg version="1.1" id="Layer_1" xmlns="http://www.w3.org/2000/svg" xmlns:xlink="http://www.w3.org/1999/xlink" x="0px" y="0px"
	 width="50px" height="50px" viewBox="0 0 50 50" enable-background="new 0 0 50 50" xml:space="preserve">
<polygon fill="none" points="0,0 0,50 50,50 50,0 0,0 "/>
<path fill="#FFF" d="M40.089,17.394c0.016,0.314,0.022,0.629,0.022,0.947c0,9.695-7.382,20.876-20.875,20.876
	c-4.145,0-7.999-1.215-11.247-3.296c0.576,0.068,1.159,0.099,1.75,0.099c3.438,0,6.599-1.169,9.108-3.137
	c-3.206-0.059-5.917-2.179-6.85-5.095c0.448,0.087,0.906,0.131,1.38,0.131c0.671,0,1.318-0.087,1.93-0.258
	c-3.353-0.673-5.88-3.641-5.88-7.194c0-0.031,0-0.062,0-0.092c0.988,0.551,2.119,0.882,3.322,0.917
	c-1.97-1.313-3.264-3.562-3.264-6.106c0-1.345,0.363-2.602,0.993-3.689c3.614,4.44,9.023,7.36,15.121,7.666
	c-0.124-0.537-0.189-1.096-0.189-1.673c0-4.051,3.285-7.333,7.338-7.333c2.106,0,4.016,0.891,5.354,2.313
	c1.67-0.327,3.24-0.938,4.662-1.776c-0.55,1.71-1.714,3.15-3.23,4.056c1.484-0.176,2.9-0.567,4.215-1.153
	C42.77,15.066,41.523,16.358,40.089,17.394L40.089,17.394z"/>
</svg>
