<svg xmlns="http://www.w3.org/2000/svg" xmlns:xlink="http://www.w3.org/1999/xlink" preserveAspectRatio="xMidYMid" width="49.938" height="50" viewBox="0 0 49.938 50">

  <path d="M24.969,-0.000 C11.178,-0.000 -0.000,11.193 -0.000,25.000 C-0.000,38.808 11.178,50.000 24.969,50.000 C38.760,50.000 49.939,38.808 49.939,25.000 C49.939,11.193 38.760,-0.000 24.969,-0.000 ZM35.125,20.480 C35.135,20.692 35.139,20.904 35.139,21.118 C35.139,27.625 30.192,35.128 21.146,35.128 C18.369,35.128 15.785,34.312 13.608,32.915 C13.993,32.961 14.384,32.984 14.781,32.984 C17.085,32.984 19.206,32.197 20.889,30.876 C18.737,30.836 16.921,29.413 16.295,27.457 C16.596,27.514 16.903,27.545 17.220,27.545 C17.668,27.545 18.103,27.485 18.516,27.372 C16.266,26.919 14.571,24.930 14.571,22.544 C14.571,22.523 14.571,22.503 14.572,22.482 C15.234,22.851 15.993,23.072 16.799,23.098 C15.479,22.215 14.611,20.708 14.611,18.999 C14.611,18.097 14.853,17.252 15.277,16.524 C17.702,19.503 21.326,21.464 25.414,21.669 C25.329,21.308 25.287,20.933 25.287,20.547 C25.287,17.827 27.488,15.623 30.204,15.623 C31.618,15.623 32.896,16.221 33.794,17.178 C34.914,16.957 35.967,16.548 36.917,15.983 C36.549,17.133 35.770,18.098 34.755,18.707 C35.749,18.588 36.697,18.324 37.579,17.932 C36.920,18.919 36.086,19.787 35.125,20.480 Z" class="cls-1"/>
</svg>
