<?xml version="1.0" encoding="utf-8"?>
<!-- Generator: Adobe Illustrator 16.0.0, SVG Export Plug-In . SVG Version: 6.00 Build 0)  -->
<!DOCTYPE svg PUBLIC "-//W3C//DTD SVG 1.1//EN" "http://www.w3.org/Graphics/SVG/1.1/DTD/svg11.dtd">
<svg version="1.1" id="Layer_1" xmlns="http://www.w3.org/2000/svg" xmlns:xlink="http://www.w3.org/1999/xlink" x="0px" y="0px"
	 width="78px" height="69.001px" viewBox="0 0 78 69.001" enable-background="new 0 0 78 69.001" xml:space="preserve">
<g>
	<g>
		<path fill-rule="evenodd" clip-rule="evenodd" fill="#FFFFFF" d="M76.32,0L20.677,12.244c0,0-1.101,0.159-2.161,0.896
			c-1.061,0.736-9.424,8.541-15.547,17.679c-1.4,1.951-3.221,4.3-2.94,12.722c0.04,1.672,0.64,10.312,7.263,16.783
			c5.883,5.694,17.607,11.309,27.191,7.347c6.662-2.887,11.524-8.441,15.606-16.484c2.521-5.157,5.642-15.669,6.122-19.71
			l11.705-6.152L78,6.988L76.32,0z M25.119,19.282l12.876-2.918l-4.426,4.863l-13.45,4.234L25.119,19.282z M43.398,51.036
			c-2.874,11.443-14.657,15.677-21.612,13.274C14.831,61.907,7.3,57.102,4.197,46.688C2.759,40.909,4.75,35.25,8,33
			c4.917-2.083,17.5-3.833,25-2C33,31,46.386,38.22,43.398,51.036z M47.766,47.66c0.115-5.149-3.047-10.069-3.047-10.069
			s4.283-2.174,6.036-2.976C51.33,39.25,48.6,46.201,47.766,47.66z M42.938,34.615c0,0-1.639-2.803-4.599-5.092l23.566-7.724
			l0.805,2.231L42.938,34.615z M74.782,6.98l-9.14,15.677l-0.805-3.032L74.839,4.177L74.782,6.98z"/>
	</g>
</g>
</svg>
