<?xml version="1.0" encoding="utf-8"?>
<!-- Generator: Adobe Illustrator 15.0.0, SVG Export Plug-In . SVG Version: 6.00 Build 0)  -->
<!DOCTYPE svg PUBLIC "-//W3C//DTD SVG 1.1//EN" "http://www.w3.org/Graphics/SVG/1.1/DTD/svg11.dtd">
<svg version="1.1" id="Layer_1" xmlns="http://www.w3.org/2000/svg" xmlns:xlink="http://www.w3.org/1999/xlink" x="0px" y="0px"
	 width="45.988px" height="46.007px" viewBox="0 0 45.988 46.007" enable-background="new 0 0 45.988 46.007" xml:space="preserve">
<path fill-rule="evenodd" clip-rule="evenodd" d="M45.987,22.088c-0.193-4.993-1.979-9.577-4.86-13.262L40.67,8.262
	C40.452,8.001,40.229,7.745,40,7.494C36.166,3.29,30.796,0.511,24.776,0.05L23.9,0h-1.812l-0.875,0.05
	C15.285,0.504,9.988,3.204,6.167,7.3L5.988,7.494c-0.374,0.41-0.734,0.833-1.078,1.27L4.775,8.936
	C1.943,12.601,0.192,17.145,0,22.088L0,23.9c0.189,4.894,1.907,9.395,4.688,13.039l0.164,0.213c0.339,0.434,0.693,0.854,1.062,1.263
	l0.155,0.169c3.329,3.612,7.811,6.087,12.836,7.061c0.624,0.121,2.307,0.294,2.307,0.294c0.29,0.022,0.582,0.039,0.875,0.051
	c0.995,0.06,2.688-0.051,2.688-0.051c5.977-0.457,11.315-3.199,15.143-7.354l1.133-1.325c2.927-3.701,4.741-8.321,4.937-13.358
	L45.987,22.088z M7.481,8.554c2.604-2.798,5.953-4.894,9.735-5.963l-0.085,0.09c-1.824,1.926-3.359,4.724-4.456,8.097l-0.137-0.035
	C10.41,10.196,8.64,9.487,7.376,8.667L7.481,8.554z M6.167,10.104l0.121,0.08c1.448,0.938,3.461,1.742,5.869,2.349l-0.036,0.138
	c-0.744,2.855-1.189,6.044-1.257,9.418H1.812C2.002,17.588,3.598,13.452,6.167,10.104z M6.258,36.007L6.13,35.841
	C3.582,32.5,2.001,28.381,1.812,23.9h9.051c0.07,3.496,0.545,6.794,1.338,9.727l-0.161,0.041
	C9.668,34.274,7.686,35.075,6.258,36.007z M17.072,43.356c-3.723-1.081-7.02-3.158-9.591-5.92l0.118-0.073
	c1.271-0.776,3.001-1.447,5.062-1.968l0.069-0.017c1.11,3.351,2.655,6.122,4.486,8.019L17.072,43.356z M22.088,44.174
	c-0.159-0.007-0.317-0.014-0.475-0.023l-0.117-0.008c-2.863-0.896-5.335-4.324-6.895-9.172l0.167-0.031
	c2.207-0.407,4.688-0.654,7.32-0.7V44.174z M22.088,32.426c-2.875,0.045-5.587,0.322-7.997,0.786
	c-0.722-2.786-1.159-5.948-1.232-9.312h9.229V32.426z M22.088,13.905v8.184h-9.232c0.058-3.293,0.468-6.395,1.151-9.146l0.197,0.038
	c2.382,0.451,5.053,0.722,7.884,0.766V13.905z M22.088,2.836v8.909v0.188c-2.74-0.049-5.317-0.316-7.592-0.753l0.041-0.13
	c1.411-4.502,3.602-7.815,6.166-9.067c0.059-0.029,0.118-0.056,0.177-0.083c0,0,0.589-0.079,1.208-0.084V2.836z M29.064,2.656
	h-0.068c3.676,1.083,6.934,3.139,9.482,5.866l0.134,0.145c-1.256,0.815-3.013,1.521-5.124,2.066l-0.176,0.044
	c-1.113-3.426-2.679-6.258-4.54-8.187L29.064,2.656z M23.9,11.685v-9.87c0.406,0.018,0.809,0.045,1.208,0.084
	c0,0,0.094,0.042,0.159,0.075c2.584,1.285,4.812,4.627,6.225,9.206l-0.135,0.026c-2.242,0.422-4.771,0.68-7.458,0.728V11.685z
	 M23.9,13.844v-0.1c2.911-0.056,5.65-0.352,8.074-0.835v0.034l0.032,0.098c0.668,2.727,1.069,5.794,1.127,9.048H23.9V13.844z
	 M23.9,23.9h9.229c-0.073,3.377-0.514,6.551-1.24,9.345c-2.403-0.474-5.112-0.762-7.989-0.816V23.9z M24.492,44.143l-0.252,0.016
	c-0.113,0.006-0.227,0.011-0.34,0.016v-9.935c2.698,0.048,5.238,0.306,7.487,0.731l-0.028,0.088
	C29.797,39.859,27.338,43.251,24.492,44.143z M28.772,43.397l0.258-0.275c1.719-1.885,3.171-4.552,4.229-7.743l0.381,0.098
	c1.889,0.499,3.485,1.127,4.685,1.848l0.183,0.112C35.902,40.234,32.554,42.329,28.772,43.397z M39.92,35.757l-0.253,0.328
	c-1.434-0.964-3.458-1.791-5.893-2.414l0.056-0.209c0.768-2.892,1.225-6.131,1.294-9.562h9.051
	C43.988,28.344,42.432,32.431,39.92,35.757z M35.125,22.088c-0.069-3.396-0.52-6.605-1.272-9.475l-0.033-0.125
	c2.467-0.636,4.51-1.48,5.939-2.466l0.08,0.104c2.56,3.345,4.147,7.472,4.336,11.961H35.125z"/>
</svg>
