<svg xmlns="http://www.w3.org/2000/svg" xmlns:xlink="http://www.w3.org/1999/xlink" x="0px" y="0px"
 width="17.156px" height="17.156px" viewBox="0 0 17.156 17.156" enable-background="new 0 0 17.156 17.156" xml:space="preserve">
  <path d="M16.682,2.540 L10.690,8.532 L16.585,14.428 C17.166,15.009 17.166,15.949 16.585,16.530 C16.005,17.110 15.064,17.110 14.483,16.530 L8.587,10.634 L2.540,16.682 C1.954,17.268 1.004,17.268 0.419,16.682 C-0.167,16.096 -0.167,15.147 0.419,14.561 L6.466,8.513 L0.470,2.517 C-0.111,1.936 -0.110,0.995 0.470,0.415 C1.050,-0.166 1.992,-0.166 2.572,0.415 L8.568,6.411 L14.561,0.419 C15.146,-0.167 16.096,-0.167 16.682,0.419 C17.268,1.004 17.268,1.954 16.682,2.540 Z" class="cls-1"/>
</svg>
