<?xml version="1.0" encoding="utf-8"?>
<!-- Generator: Adobe Illustrator 16.0.5, SVG Export Plug-In . SVG Version: 6.00 Build 0)  -->
<!DOCTYPE svg PUBLIC "-//W3C//DTD SVG 1.1//EN" "http://www.w3.org/Graphics/SVG/1.1/DTD/svg11.dtd">
<svg version="1.1" id="Layer_1" xmlns="http://www.w3.org/2000/svg" xmlns:xlink="http://www.w3.org/1999/xlink" x="0px" y="0px"
	 width="50px" height="50px" viewBox="0 0 50 50" enable-background="new 0 0 50 50" xml:space="preserve">
<polygon fill="none" points="0,0 0,50 50,50 50,0 0,0 "/>
<g>
	<polygon fill="#FFFFFF" points="15.718,6.782 17.274,12.43 17.424,12.43 18.907,6.782 21.341,6.782 18.553,15.048 18.553,20.904 
		16.157,20.904 16.157,15.308 13.301,6.782 15.718,6.782 	"/>
	<path fill="#FFFFFF" d="M24.582,19.363c-0.282,0-0.496-0.073-0.65-0.238c-0.151-0.154-0.226-0.374-0.226-0.66V12.79
		c0-0.229,0.081-0.411,0.239-0.553c0.162-0.141,0.377-0.209,0.637-0.209c0.282,0,0.507,0.068,0.685,0.209
		c0.17,0.142,0.258,0.323,0.258,0.553v5.675c0,0.277-0.088,0.502-0.258,0.66C25.098,19.285,24.87,19.363,24.582,19.363
		L24.582,19.363z M21.515,12.867v5.4c0,0.885,0.281,1.587,0.836,2.112c0.559,0.524,1.305,0.79,2.236,0.79
		c0.967,0,1.727-0.255,2.28-0.762c0.547-0.511,0.826-1.205,0.826-2.1v-5.382c0-0.79-0.282-1.446-0.843-1.948
		c-0.565-0.5-1.287-0.752-2.165-0.752c-0.971,0-1.739,0.237-2.314,0.716C21.802,11.417,21.515,12.059,21.515,12.867L21.515,12.867z"
		/>
	<path fill="#FFFFFF" d="M29.417,10.485h2.126v7.988c0,0.246,0.05,0.424,0.136,0.534c0.087,0.114,0.235,0.168,0.435,0.168
		c0.154,0,0.354-0.072,0.596-0.219c0.239-0.15,0.454-0.334,0.654-0.562v-7.91h2.13v10.419h-2.13v-1.152
		c-0.393,0.423-0.798,0.751-1.224,0.971c-0.429,0.219-0.835,0.337-1.236,0.337c-0.491,0-0.862-0.16-1.11-0.474
		c-0.249-0.308-0.376-0.771-0.376-1.392V10.485L29.417,10.485z"/>
</g>
<g>
	<path fill="#FFFFFF" d="M28.386,31.345c-0.134,0-0.269,0.033-0.401,0.093c-0.133,0.064-0.259,0.159-0.388,0.292v5.893
		c0.151,0.151,0.301,0.27,0.447,0.332c0.146,0.069,0.298,0.105,0.456,0.105c0.233,0,0.401-0.066,0.512-0.204
		c0.106-0.133,0.158-0.348,0.158-0.651v-4.883c0-0.324-0.061-0.564-0.195-0.729C28.838,31.429,28.641,31.345,28.386,31.345z"/>
	<path fill="#FFFFFF" d="M36.766,24.189H13.051c-3.771,0-6.823,3.06-6.823,6.828v5.487c0,3.77,3.053,6.828,6.823,6.828h23.715
		c3.772,0,6.829-3.059,6.829-6.828v-5.487C43.595,27.249,40.538,24.189,36.766,24.189z M18.034,28.464h-2.205v10.955h-2.131V28.464
		h-2.204v-1.866h6.54V28.464z M24.263,39.419h-1.892v-1.04c-0.349,0.385-0.708,0.676-1.091,0.876
		c-0.376,0.204-0.742,0.302-1.095,0.302c-0.443,0-0.768-0.138-0.99-0.424c-0.22-0.284-0.332-0.697-0.332-1.264v-7.91h1.894v7.257
		c0,0.225,0.039,0.385,0.117,0.484c0.079,0.104,0.209,0.15,0.385,0.15c0.136,0,0.312-0.063,0.527-0.195
		c0.214-0.139,0.408-0.307,0.585-0.511v-7.186h1.892V39.419z M31.119,37.468c0,0.665-0.144,1.177-0.441,1.537
		c-0.295,0.361-0.727,0.533-1.286,0.533c-0.372,0-0.699-0.063-0.986-0.206c-0.289-0.137-0.565-0.346-0.809-0.638v0.725h-1.913
		V26.598h1.913v4.129c0.255-0.285,0.525-0.508,0.809-0.657c0.287-0.151,0.579-0.225,0.87-0.225c0.603,0,1.059,0.199,1.373,0.604
		c0.316,0.404,0.471,0.993,0.471,1.769V37.468z M37.677,34.917h-3.616v1.78c0,0.496,0.065,0.844,0.185,1.039
		c0.125,0.192,0.341,0.287,0.643,0.287c0.312,0,0.532-0.083,0.657-0.246c0.121-0.163,0.188-0.524,0.188-1.08v-0.431h1.943v0.485
		c0,0.971-0.234,1.7-0.716,2.193c-0.467,0.488-1.176,0.73-2.117,0.73c-0.848,0-1.516-0.257-2.001-0.779
		c-0.483-0.518-0.729-1.233-0.729-2.145v-4.248c0-0.814,0.265-1.492,0.803-2.008c0.532-0.515,1.223-0.771,2.069-0.771
		c0.866,0,1.532,0.238,1.996,0.716c0.464,0.48,0.695,1.162,0.695,2.062V34.917z"/>
	<path fill="#FFFFFF" d="M34.904,31.378c-0.301,0-0.514,0.086-0.646,0.264c-0.132,0.165-0.197,0.452-0.197,0.849v0.954h1.673V32.49
		c0-0.396-0.067-0.684-0.2-0.849C35.408,31.464,35.192,31.378,34.904,31.378z"/>
</g>
</svg>
