<?xml version="1.0" encoding="utf-8"?>
<!-- Generator: Adobe Illustrator 19.1.0, SVG Export Plug-In . SVG Version: 6.00 Build 0)  -->
<svg version="1.1" id="Layer_1" xmlns="http://www.w3.org/2000/svg" xmlns:xlink="http://www.w3.org/1999/xlink" x="0px" y="0px"
	 width="43.9px" height="43.9px" viewBox="0 0 43.9 43.9" style="enable-background:new 0 0 43.9 43.9;" xml:space="preserve">
<style type="text/css">
	.st0{fill-rule:evenodd;clip-rule:evenodd;fill:#acacac;}
</style>
<g>
	<g>
		<path class="st0" d="M24.7,16.4h-5.5v5.5h5.5V16.4z M35.6,24.6h-5.5v5.5h5.5V24.6z M8.6,8.1h4.7c0.2,0,0.3-0.2,0.3-0.3V0.3
			c0-0.2-0.2-0.3-0.3-0.3H8.6C8.4,0,8.2,0.2,8.2,0.3v7.4C8.2,7.9,8.4,8.1,8.6,8.1z M35.6,16.4h-5.5v5.5h5.5V16.4z M24.7,24.6h-5.5
			v5.5h5.5V24.6z M13.7,32.8H8.2v5.5h5.5V32.8z M36.8,5.4v3.5c0,0.2-0.2,0.3-0.3,0.3h-7.1C29.2,9.2,29,9,29,8.9l0-3.5
			c0,0-9.4,0-14.2,0l0,0c0,1.8,0,3.5,0,3.5c0,0.2-0.2,0.3-0.3,0.3H7.4C7.2,9.2,7.1,9,7.1,8.9c0,0,0-1.6,0-3.4V5.4
			c-4.4,0-7.1,0-7.1,0v38.5h43.9V5.4C43.9,5.4,41.2,5.4,36.8,5.4z M41.2,41H2.7V13.6h38.5V41z M13.7,16.4H8.2v5.5h5.5V16.4z
			 M13.7,24.6H8.2v5.5h5.5V24.6z M24.7,32.8h-5.5v5.5h5.5V32.8z M30.6,8.1h4.7c0.2,0,0.3-0.2,0.3-0.3V0.3c0-0.2-0.2-0.3-0.3-0.3
			h-4.7c-0.2,0-0.3,0.2-0.3,0.3v7.4C30.2,7.9,30.4,8.1,30.6,8.1z"/>
	</g>
</g>
</svg>
