<?xml version="1.0" encoding="utf-8"?>
<!-- Generator: Adobe Illustrator 15.0.0, SVG Export Plug-In . SVG Version: 6.00 Build 0)  -->
<!DOCTYPE svg PUBLIC "-//W3C//DTD SVG 1.1//EN" "http://www.w3.org/Graphics/SVG/1.1/DTD/svg11.dtd">
<svg version="1.1" id="Layer_1" xmlns="http://www.w3.org/2000/svg" xmlns:xlink="http://www.w3.org/1999/xlink" x="0px" y="0px"
	 width="69.051px" height="83.557px" viewBox="0 0 69.051 83.557" enable-background="new 0 0 69.051 83.557" xml:space="preserve">
<g>
	<g>
		<path fill-rule="evenodd" clip-rule="evenodd" fill="#FFFFFF" d="M69.038,15.133c-0.146-0.965-1.1-2.159-3.495-3.116
			C59.478,9.168,53.457,2.818,42.827,0.89C36.418,0,34.962,0,34.962,0h-0.873c0,0-1.456,0-7.863,0.89
			C15.595,2.818,10.295,9.08,3.509,12.017c-3.116,1.714-3.35,1.929-3.495,3.116c-0.146,1.187,0.874,1.78,0.874,1.78
			s5.679,4.45,5.679,19.139C6.421,50.738,2.781,48.514,3.946,56.524c2.33,14.095,19.367,18.99,24.901,20.919
			c4.44,2.374,5.242,5.785,5.242,5.785s0.396,0.738,0.873,0c0,0,1.02-4.079,5.242-5.785c5.534-1.929,22.571-6.824,24.901-20.919
			c1.165-8.011-2.476-5.786-2.621-20.473c0-14.688,5.679-19.139,5.679-19.139S69.183,16.319,69.038,15.133z M34.307,48.068
			c-4.463,0-8.081-3.687-8.081-8.234c0-4.547,3.618-8.233,8.081-8.233c4.464,0,8.082,3.687,8.082,8.233
			C42.389,44.382,38.771,48.068,34.307,48.068z"/>
	</g>
</g>
</svg>
