<?xml version="1.0" encoding="utf-8"?>
<!-- Generator: Adobe Illustrator 16.0.5, SVG Export Plug-In . SVG Version: 6.00 Build 0)  -->
<!DOCTYPE svg PUBLIC "-//W3C//DTD SVG 1.1//EN" "http://www.w3.org/Graphics/SVG/1.1/DTD/svg11.dtd">
<svg version="1.1" id="Layer_1" xmlns="http://www.w3.org/2000/svg" xmlns:xlink="http://www.w3.org/1999/xlink" x="0px" y="0px"
	 width="50px" height="50px" viewBox="0 0 50 50" enable-background="new 0 0 50 50" xml:space="preserve">
<polygon fill="none" points="0,0 0,50 50,50 50,0 0,0 "/>
<path fill="#FFFFFF" d="M33.477,25.016H27.93c0,8.866,0,19.776,0,19.776h-8.218c0,0,0-10.805,0-19.776h-3.909v-6.987h3.909v-4.522
	c0-3.232,1.537-8.297,8.293-8.297l6.088,0.024v6.784c0,0-3.701,0-4.419,0c-0.72,0-1.744,0.362-1.744,1.903v4.107h6.267
	L33.477,25.016L33.477,25.016z"/>
</svg>
