<?xml version="1.0" encoding="utf-8"?>
<!-- Generator: Adobe Illustrator 19.1.0, SVG Export Plug-In . SVG Version: 6.00 Build 0)  -->
<svg version="1.1" id="Layer_1" xmlns="http://www.w3.org/2000/svg" xmlns:xlink="http://www.w3.org/1999/xlink" x="0px" y="0px"
	 viewBox="0 0 47.9 43.4" style="enable-background:new 0 0 47.9 43.4;" xml:space="preserve">
<style type="text/css">
	.st0{fill:#FFFFFF;}
	.st1{fill-rule:evenodd;clip-rule:evenodd;fill:#FFFFFF;}
</style>
<g>
	<path class="st0" d="M19.1,22.7c-6.3,0-11.3-5.1-11.3-11.3S12.8,0,19.1,0s11.3,5.1,11.3,11.3S25.4,22.7,19.1,22.7z M19.1,3.8
		c-4.2,0-7.5,3.3-7.5,7.5s3.3,7.5,7.5,7.5s7.5-3.3,7.5-7.5S23.3,3.8,19.1,3.8z"/>
	<path class="st0" d="M1.9,43.4c-1,0-1.9-0.9-1.9-1.9V32c0-0.8,0.5-1.4,1.1-1.7l8.3-4.9c0.5-0.2,1.1-0.2,1.6,0c0,0,4.5,2.1,8.1,2.1
		c2.9,0,7.2-1.5,8.5-2.1c0.6-0.2,1.1-0.2,1.7,0.1l7.8,5.8c0.6,0.4,1,1,1,1.6v8.4c0,1-0.9,1.9-1.9,1.9H2.5
		C2.3,43.4,2.1,43.4,1.9,43.4z M3.8,39.5h30.6v-5.3l-6.1-4.8c-1.8,0.7-5.8,2.1-9.1,2.1c-3.5,0-7.3-1.4-9-2.1l-6.4,4V39.5z"/>
</g>
<polygon class="st1" points="47.9,17 41.9,17 41.9,10.9 38.9,10.9 38.9,17 32.9,17 32.9,19.9 38.9,19.9 38.9,26 41.9,26 41.9,19.9 
	47.9,19.9 "/>
</svg>
