<?xml version="1.0" encoding="utf-8"?>
<!-- Generator: Adobe Illustrator 15.0.0, SVG Export Plug-In . SVG Version: 6.00 Build 0)  -->
<!DOCTYPE svg PUBLIC "-//W3C//DTD SVG 1.1//EN" "http://www.w3.org/Graphics/SVG/1.1/DTD/svg11.dtd">
<svg version="1.1" id="Layer_1" xmlns="http://www.w3.org/2000/svg" xmlns:xlink="http://www.w3.org/1999/xlink" x="0px" y="0px"
	 width="65.072px" height="65.209px" viewBox="0 0 65.072 65.209" enable-background="new 0 0 65.072 65.209" xml:space="preserve">
<path fill="#FFFFFF" d="M60.586,4.741C57.547,1.64,52.749,0,46.715,0C35.4,0,22.283,5.75,14.073,14.309
	C8.475,20.145,3.605,29.205,1.364,37.953c-2.562,10.005-1.491,18.051,3.018,22.652c2.951,3.011,7.53,4.604,13.244,4.604
	c0.002,0,0.002,0,0.003,0c11.159,0,25.144-5.953,33.25-14.156c8.335-8.437,14.172-22.028,14.193-33.056
	C65.085,12.333,63.532,7.749,60.586,4.741z M16.222,46.241c0,0-3.993,1.862-5.649,1.358c-1.354-0.41-2.137-4.555-0.976-10.074
	c1.197-5.699,3.246-13.426,9.971-20.958c0.004-0.004,0.008-0.009,0.014-0.014c3.624-3.779,8.353-6.971,13.674-9.231
	c4.972-2.112,10.214-3.274,14.762-3.274c3.378,0.001,6.198,0.634,8.178,1.805c0.782,0.542,0.83,3.484-1.013,6.886
	c-1.841,3.402-7.398,10.938-14.027,16.802C34.526,35.404,19.8,44.942,16.222,46.241z M48.038,45.487
	c-4.502,4.558-11.29,8.388-18.117,10.543c-0.209,0.043-0.418,0.083-0.622,0.122c-2.632,0.475-5.79,0.657-7.089,0.343
	c-1.74-0.42-1.331-1.961,0.041-2.871c1.371-0.911,12.312-9.611,18.193-15.611c5.407-5.517,16.493-17.264,19.612-23.681
	c0.09-0.185,0.3-0.183,0.318-0.002c0.087,0.825,0.118,1.624,0.117,2.353C60.473,26.09,55.236,38.203,48.038,45.487z"/>
</svg>
