<svg xmlns="http://www.w3.org/2000/svg" width="107.96" height="79.998" viewBox="0 0 107.96 79.998"><path fill-rule="evenodd" clip-rule="evenodd" fill="#FFF" d="M44.446 75.788s.759-1.403 1.82-2.807 2.123-3.118 2.729-5.146c.607-2.026 1.062-2.65 2.275-2.338 1.213.312 5.763-4.366 8.189-8.421 2.427-4.054 4.095-7.173 3.64-8.421-.454-1.247-2.578-1.402-5.46-2.806-2.881-1.404-6.521-2.808-8.189-5.146-.91-1.091-3.336 2.184-3.64 4.21-.123.819-1.804 4.496-4.095 7.485-2.042 2.665-4.476 4.482-8.19 7.952-2.428 2.27-5.01 5.392-8.189 7.484-6.875 4.51-8.3 5.033-10.681 6.325-.666.36-1.838.338-2.699 1.019-2.73 2.184-8.971 4.819-11.094 4.819-1.972 0-.152-2.026 1.365-3.742s3.488-7.797 5.005-7.484c1.517.312 2.881 1.715 5.005-.469.802-.824 3.205-2.923 5.46-5.612 1.971-2.353 3.991-5.424 5.542-8.753 1.536-3.3 3.429-6.566 5.378-9.492.539-1.275 1.92-3.828 2.287-4.926.043-.356.43-1.6.468-1.928.669-5.766.94-7.306 7.493-12.047.866-.626 2.153-1.233 2.928-1.82 6.548-4.952 9.475-8.381 11.848-9.218 1.062-1.287.455-1.988-.91-1.871-1.934.468-8.038.312-14.104 3.274-6.066 2.963-9.706 3.274-11.374 4.678-1.668 1.403-5.005 3.119-4.095 1.403.91-1.715 2.275-3.742 4.095-4.21 1.82-.468 5.459-3.274 5.459-3.274s6.673-4.054 12.739-6.55c3.792-1.559 6.977-1.715 10.01-2.807 3.033-1.091 16.588-1.559 18.104 2.34.222.304.409.652.909.467.529-.194.456-.466.456-.466S74.854.472 82.209.006c8.645-.312 9.63 12.63 2.274 14.969-6.521 2.184-8.189-1.871-8.189-1.871s.485 1.099.455 1.871c.152 1.638.758-.312 1.365 5.146.406 3.649 1.609 6.533 3.64 7.953 1.007.703 2.483.573 3.64.936 4.096.155 9.403-.312 12.74-1.871 3.336-1.56 8.947-2.808 9.555-2.808.48-.135.32.731-.455 1.403-.568.493-2.238 2.197-2.275 2.34-.1.379-4.824.943-5.704 1.678-.297.249-.761.29-2.03 1.128-2.779 1.836-7.443 4.132-14.104 3.275-7.432-.312-8.493-4.678-10.465-8.888-.909-1.871-1.364-1.56-1.819-.937-.455.624-1.973 3.119-8.645 5.614-2.578.935-5.461 3.118-3.186 3.742s7.887 3.431 13.649 9.824c1.669 3.118 1.365 5.613 0 6.549-1.364.936-3.488 8.576-14.104 16.841-5.156 4.834-6.218 3.586-8.645 6.081-2.427 2.494-6.522 5.925-5.46 2.807z"/></svg>