<svg xmlns="http://www.w3.org/2000/svg" width="73.007" height="72.981" viewBox="0 0 73.007 72.981"><path fill="#FFFFFA" d="M24.809 71.151c2.206.762 5.459 1.383 8.798 1.666 1.284.109 2.538.164 3.728.164 2.568 0 4.727-.259 6.258-.75 8.83-9.446 10.979-21.461 11.223-29.891.227-7.846-1.1-14.107-1.508-15.819-.5.023-1.361.076-2.424.188-1.455.154-3.572.453-5.68 1.014 1.82 8.985-1.203 19.395-8.769 30.152-4.65 6.613-9.75 11.548-11.626 13.276zm32.492-44.466c2.678 14.655.467 26.037-1.881 33.04-1.676 4.999-3.619 8.489-4.82 10.376 5.824-2.387 10.666-5.961 14.418-10.643 3.865-4.824 5.188-9.091 5.559-10.594-3.164-5.514-5.266-11.158-6.477-14.943-1.053-3.284-1.621-5.719-1.824-6.654a94.176 94.176 0 0 0-2.557-.362c-1.073-.134-1.903-.21-2.418-.22zM4.399 54.124c1.731 3.317 4.417 6.742 7.598 9.679 2.824 2.607 5.855 4.636 8.187 5.487 3.059-2.357 6.819-6.112 10.124-10.113 2.888-3.498 6.864-8.91 9.405-14.83 2.277-5.301 2.531-9.382 2.344-11.873-.135-1.789-.51-3.023-.736-3.631-8.015 2.071-16.787 7.871-22.789 12.421-7.271 5.512-12.483 10.677-14.133 12.86zM1.58 25.536c-.488.928-1.383 4.386-1.553 9.284-.139 4.006.188 9.798 2.446 15.119C7.111 45.227 13.37 39.92 19.39 35.608c5.313-3.807 12.981-8.66 19.873-10.625-.881-1.072-3.048-3.206-7.122-4.463-2.183-.674-4.645-1.015-7.315-1.015-6.553 0-14.373 2.029-23.246 6.031zm64.774 2.519a61.83 61.83 0 0 0 1.336 5.314c.865 2.893 2.309 6.9 4.422 10.312.213-.889.48-2.183.666-3.696.322-2.601.463-6.39-.658-9.795-.994-.656-2.418-1.254-4.137-1.735a26.51 26.51 0 0 0-1.629-.4zm-1.036-4.261c.254.078.609.166 1 .261.291.071.617.152.977.246.898.234 2.213.604 3.814 1.228-.293-2.346-1.473-4.805-2.473-6.544-1.037-1.8-2.354-3.623-3.611-5.024a95.271 95.271 0 0 0 .09 6.693c.071 1.473.156 2.593.203 3.14zM24.78 15.585c8.298 0 14.548 2.874 18.585 8.544l2.799-.414c1.646-.242 3.717-.544 5.67-.822-.568-1.498-2.189-5.285-5.389-9.262C42.666 8.935 35.856 3.013 24.844 1.414c-3.71 1.184-8.171 3.796-11.965 7.009-3.014 2.553-6.91 6.584-8.996 11.689 3.561-1.349 10.299-3.736 17.414-4.368a39.836 39.836 0 0 1 3.483-.159zm31.411 6.955l5.342.46c-.092-.86-.244-2.402-.371-4.247-.178-2.555-.34-6.222-.129-9.367-2.223-2.276-6.914-4.898-12.072-6.732C45.557 1.443 40.338 0 34.808 0c-.263 0-.523.003-.782.01a35.99 35.99 0 0 1 9.334 4.873c5.964 4.342 10.281 10.28 12.831 17.657z"/></svg>