<svg id="Layer_1" xmlns="http://www.w3.org/2000/svg" width="43.9" height="43.9" viewBox="0 0 43.9 43.9"><style>.st0{fill-rule:evenodd;clip-rule:evenodd;fill:#acacac}</style><path class="st0" d="M24.7 16.4h-5.5v5.5h5.5v-5.5zm10.9 8.2h-5.5v5.5h5.5v-5.5zM8.6 8.1h4.7c.2 0 .3-.2.3-.3V.3c0-.2-.2-.3-.3-.3H8.6c-.2 0-.4.2-.4.3v7.4c0 .2.2.4.4.4zm27 8.3h-5.5v5.5h5.5v-5.5zm-10.9 8.2h-5.5v5.5h5.5v-5.5zm-11 8.2H8.2v5.5h5.5v-5.5zM36.8 5.4v3.5c0 .2-.2.3-.3.3h-7.1c-.2 0-.4-.2-.4-.3V5.4H14.8v3.5c0 .2-.2.3-.3.3H7.4c-.2 0-.3-.2-.3-.3V5.4H0v38.5h43.9V5.4h-7.1zM41.2 41H2.7V13.6h38.5V41zM13.7 16.4H8.2v5.5h5.5v-5.5zm0 8.2H8.2v5.5h5.5v-5.5zm11 8.2h-5.5v5.5h5.5v-5.5zm5.9-24.7h4.7c.2 0 .3-.2.3-.3V.3c0-.2-.2-.3-.3-.3h-4.7c-.2 0-.3.2-.3.3v7.4c-.1.2.1.4.3.4z"/></svg>