<svg xmlns="http://www.w3.org/2000/svg" width="69.051" height="83.557" viewBox="0 0 69.051 83.557"><path fill-rule="evenodd" clip-rule="evenodd" fill="#FFF" d="M69.038 15.133c-.146-.965-1.1-2.159-3.495-3.116C59.478 9.168 53.457 2.818 42.827.89 36.418 0 34.962 0 34.962 0h-.873s-1.456 0-7.863.89C15.595 2.818 10.295 9.08 3.509 12.017.393 13.731.159 13.946.014 15.133c-.146 1.187.874 1.78.874 1.78s5.679 4.45 5.679 19.139c-.146 14.686-3.786 12.462-2.621 20.472 2.33 14.095 19.367 18.99 24.901 20.919 4.44 2.374 5.242 5.785 5.242 5.785s.396.738.873 0c0 0 1.02-4.079 5.242-5.785 5.534-1.929 22.571-6.824 24.901-20.919 1.165-8.011-2.476-5.786-2.621-20.473 0-14.688 5.679-19.139 5.679-19.139s1.02-.593.875-1.779zM34.307 48.068c-4.463 0-8.081-3.687-8.081-8.234 0-4.547 3.618-8.233 8.081-8.233 4.464 0 8.082 3.687 8.082 8.233 0 4.548-3.618 8.234-8.082 8.234z"/></svg>