<svg id="Layer_1" xmlns="http://www.w3.org/2000/svg" viewBox="0 0 47.9 43.4"><style>.st0,.st1{fill:#fff}.st1{fill-rule:evenodd;clip-rule:evenodd}</style><path class="st0" d="M19.1 22.7c-6.3 0-11.3-5.1-11.3-11.3S12.8 0 19.1 0s11.3 5.1 11.3 11.3-5 11.4-11.3 11.4zm0-18.9c-4.2 0-7.5 3.3-7.5 7.5s3.3 7.5 7.5 7.5 7.5-3.3 7.5-7.5-3.3-7.5-7.5-7.5zM1.9 43.4c-1 0-1.9-.9-1.9-1.9V32c0-.8.5-1.4 1.1-1.7l8.3-4.9c.5-.2 1.1-.2 1.6 0 0 0 4.5 2.1 8.1 2.1 2.9 0 7.2-1.5 8.5-2.1.6-.2 1.1-.2 1.7.1l7.8 5.8c.6.4 1 1 1 1.6v8.4c0 1-.9 1.9-1.9 1.9H2.5c-.2.2-.4.2-.6.2zm1.9-3.9h30.6v-5.3l-6.1-4.8c-1.8.7-5.8 2.1-9.1 2.1-3.5 0-7.3-1.4-9-2.1l-6.4 4v6.1z"/><path class="st1" d="M47.9 17h-6v-6.1h-3V17h-6v2.9h6V26h3v-6.1h6z"/></svg>