<svg xmlns="http://www.w3.org/2000/svg" width="47.302" height="47.121" viewBox="0 0 47.302 47.121"><path fill-rule="evenodd" clip-rule="evenodd" fill="#FFF" d="M23.651 0C10.589 0 0 10.549 0 23.561c0 13.013 10.589 23.561 23.651 23.561s23.651-10.548 23.651-23.561C47.302 10.549 36.713 0 23.651 0zm17.268 12.154s3.038 3.297 3.566 10.472l-3.941-4.675.375-5.797zM39.23 9.536l-.751 8.041-4.881 2.617-9.197-6.544.188-6.171s4.429-2.126 7.32-3.179C36.3 6.399 39.23 9.536 39.23 9.536zM31.909 21.69l-3.19 10.098H18.207L15.016 21.69l8.447-6.17 8.446 6.17zM28.972 3.367l-5.58 2.338-5.533-2.335s3.725-1.619 11.113-.003zm-13.918.939c2.902 1.02 7.353 3.092 7.353 3.092l.228 6.146-9.168 6.614L8.561 17.6l-.805-8.003s2.914-3.155 7.298-5.291zm-9.462 7.872l.559 6.005-3.902 4.553c0-.001-.427-4.027 3.343-10.558zM2.821 25.617c.994-.885 5.066-5.983 5.066-5.983l5.253 2.805 3.189 9.911-3.002 3.553-8.068-1.87c.001-.001-2.597-5.474-2.438-8.416zm4.1 11.011l5.916 1.276 3.184 5.077s-3.983-.805-9.1-6.353zm12.037 7.314l-3.942-6.731 2.816-3.366h11.263l2.814 3.18-3.941 6.918c-4.544 1.398-9.01-.001-9.01-.001zm12.014-.748l3.003-5.235 5.819-1.496s-1.971 3.541-8.822 6.731zm10.886-9.162l-8.072 1.87-3.002-3.553 3.19-9.911 5.256-2.805s4.073 5.099 5.067 5.983c.161 2.943-2.439 8.416-2.439 8.416z"/></svg>