<?xml version="1.0" encoding="UTF-8"?><!DOCTYPE svg PUBLIC "-//W3C//DTD SVG 1.1//EN" "http://www.w3.org/Graphics/SVG/1.1/DTD/svg11.dtd"><svg xmlns="http://www.w3.org/2000/svg"><symbol id="account-settings" viewBox="0 0 46.2 45.9"><style>.st0{fill:#fff}</style><path class="st0" d="M10.5 45.9c-1.8 0-4.4-.7-7.2-3.5C-1.8 37.3.6 33 .7 32.8l.1-.2 13-12.8c-.6-3-1.6-10.8 3.9-15.8C24.5-2.1 32.9.3 34.5 1.5l2 1.4-1.8 1.7c-2.5 2.4-5.7 5.8-7 7.3l1 5.6L34 19l9.2-8.7 1.3 2.1c1.7 2.9 3.6 10.1-2 16.4-4.5 5.1-12.6 4.1-15.7 3.5l-13.2 13-.2.1c-.2 0-1.3.5-2.9.5zM4.1 35c-.1.5-.4 2.2 2 4.6 2.6 2.6 4.5 2.4 5.1 2.3l14.3-14.1 1.1.3c.1 0 9 2.4 12.8-2 3.1-3.5 3-7 2.5-9.3l-6.8 6.5-9.9-2.7-1.8-10 .7-.7c.1-.2 2.7-3 5.4-5.8-2.4-.2-6 .1-9.1 2.9-4.9 4.4-2.4 12.8-2.4 12.8l.3 1.2-.9.8L4.1 35z"/></symbol><symbol id="agent" viewBox="0 0 53.292 83.562"><path fill-rule="evenodd" clip-rule="evenodd" fill="#FFF" d="M53.271 74.02c-1.32-12.663-5.72-17.728-10.561-22.793s-6.601-6.258-8.361-9.833c4.841-4.618 1.174-9.833.881-11.621-.147-2.681 1.76-6.107 1.76-10.726-.439-7.449-4.4-21.155-15.842-18.772C9.707 2.808 7.8 8.022 4.426 9.661s1.614 2.979 1.76 4.916c.147 1.937.147 5.363-.44 5.811-4.987 2.086.587 7.3 1.32 8.492.733 1.191.88 4.319 1.32 6.257.052.394.245.697.44 1.341.203 1.16-.168 1.452 0 2.234.484 1.802 1.111 2.917 1.76 3.575 1.174 1.192-.439 4.47-.439 4.47s-2.201 1.341-3.961 1.341-2.494 0-3.96 1.788C.319 52.269-.121 56.888.025 62.4c.147 5.513.147 6.258 3.081 7.599 2.934 1.34 2.053 2.681 3.96 4.916C10.44 77.894 30.535 85.79 41.83 82.96c11.294-2.832 11.588-5.812 11.441-8.94zM33.029 39.159c-.551-1.341-.33-2.794-.44-4.916-.11-2.124 1.32-2.683 1.32-2.683s1.21.335 1.76 3.129c.44 2.794-2.2 5.363-2.2 5.363s-.22-.558-.44-.893z"/></symbol><symbol id="arrow-left" viewBox="0 0 22 43.9"><style>.st0{fill-rule:evenodd;clip-rule:evenodd;fill:#fff}</style><path class="st0" d="M22 5.4V0L0 22l21.9 21.9v-5.4L5.4 22 22 5.4z"/></symbol><symbol id="arrow-right" viewBox="0 0 22 43.9"><style>.st0{fill-rule:evenodd;clip-rule:evenodd;fill:#fff}</style><path class="st0" d="M16.6 22L.1 38.5v5.4L22 22 0 0v5.4L16.6 22z"/></symbol><symbol id="athlete" viewBox="0 0 107.96 79.998"><path fill-rule="evenodd" clip-rule="evenodd" fill="#FFF" d="M44.446 75.788s.759-1.403 1.82-2.807 2.123-3.118 2.729-5.146c.607-2.026 1.062-2.65 2.275-2.338 1.213.312 5.763-4.366 8.189-8.421 2.427-4.054 4.095-7.173 3.64-8.421-.454-1.247-2.578-1.402-5.46-2.806-2.881-1.404-6.521-2.808-8.189-5.146-.91-1.091-3.336 2.184-3.64 4.21-.123.819-1.804 4.496-4.095 7.485-2.042 2.665-4.476 4.482-8.19 7.952-2.428 2.27-5.01 5.392-8.189 7.484-6.875 4.51-8.3 5.033-10.681 6.325-.666.36-1.838.338-2.699 1.019-2.73 2.184-8.971 4.819-11.094 4.819-1.972 0-.152-2.026 1.365-3.742s3.488-7.797 5.005-7.484c1.517.312 2.881 1.715 5.005-.469.802-.824 3.205-2.923 5.46-5.612 1.971-2.353 3.991-5.424 5.542-8.753 1.536-3.3 3.429-6.566 5.378-9.492.539-1.275 1.92-3.828 2.287-4.926.043-.356.43-1.6.468-1.928.669-5.766.94-7.306 7.493-12.047.866-.626 2.153-1.233 2.928-1.82 6.548-4.952 9.475-8.381 11.848-9.218 1.062-1.287.455-1.988-.91-1.871-1.934.468-8.038.312-14.104 3.274-6.066 2.963-9.706 3.274-11.374 4.678-1.668 1.403-5.005 3.119-4.095 1.403.91-1.715 2.275-3.742 4.095-4.21 1.82-.468 5.459-3.274 5.459-3.274s6.673-4.054 12.739-6.55c3.792-1.559 6.977-1.715 10.01-2.807 3.033-1.091 16.588-1.559 18.104 2.34.222.304.409.652.909.467.529-.194.456-.466.456-.466S74.854.472 82.209.006c8.645-.312 9.63 12.63 2.274 14.969-6.521 2.184-8.189-1.871-8.189-1.871s.485 1.099.455 1.871c.152 1.638.758-.312 1.365 5.146.406 3.649 1.609 6.533 3.64 7.953 1.007.703 2.483.573 3.64.936 4.096.155 9.403-.312 12.74-1.871 3.336-1.56 8.947-2.808 9.555-2.808.48-.135.32.731-.455 1.403-.568.493-2.238 2.197-2.275 2.34-.1.379-4.824.943-5.704 1.678-.297.249-.761.29-2.03 1.128-2.779 1.836-7.443 4.132-14.104 3.275-7.432-.312-8.493-4.678-10.465-8.888-.909-1.871-1.364-1.56-1.819-.937-.455.624-1.973 3.119-8.645 5.614-2.578.935-5.461 3.118-3.186 3.742s7.887 3.431 13.649 9.824c1.669 3.118 1.365 5.613 0 6.549-1.364.936-3.488 8.576-14.104 16.841-5.156 4.834-6.218 3.586-8.645 6.081-2.427 2.494-6.522 5.925-5.46 2.807z"/></symbol><symbol id="basket-ball" viewBox="0 0 73.007 72.981"><path fill="#FFFFFA" d="M24.809 71.151c2.206.762 5.459 1.383 8.798 1.666 1.284.109 2.538.164 3.728.164 2.568 0 4.727-.259 6.258-.75 8.83-9.446 10.979-21.461 11.223-29.891.227-7.846-1.1-14.107-1.508-15.819-.5.023-1.361.076-2.424.188-1.455.154-3.572.453-5.68 1.014 1.82 8.985-1.203 19.395-8.769 30.152-4.65 6.613-9.75 11.548-11.626 13.276zm32.492-44.466c2.678 14.655.467 26.037-1.881 33.04-1.676 4.999-3.619 8.489-4.82 10.376 5.824-2.387 10.666-5.961 14.418-10.643 3.865-4.824 5.188-9.091 5.559-10.594-3.164-5.514-5.266-11.158-6.477-14.943-1.053-3.284-1.621-5.719-1.824-6.654a94.176 94.176 0 0 0-2.557-.362c-1.073-.134-1.903-.21-2.418-.22zM4.399 54.124c1.731 3.317 4.417 6.742 7.598 9.679 2.824 2.607 5.855 4.636 8.187 5.487 3.059-2.357 6.819-6.112 10.124-10.113 2.888-3.498 6.864-8.91 9.405-14.83 2.277-5.301 2.531-9.382 2.344-11.873-.135-1.789-.51-3.023-.736-3.631-8.015 2.071-16.787 7.871-22.789 12.421-7.271 5.512-12.483 10.677-14.133 12.86zM1.58 25.536c-.488.928-1.383 4.386-1.553 9.284-.139 4.006.188 9.798 2.446 15.119C7.111 45.227 13.37 39.92 19.39 35.608c5.313-3.807 12.981-8.66 19.873-10.625-.881-1.072-3.048-3.206-7.122-4.463-2.183-.674-4.645-1.015-7.315-1.015-6.553 0-14.373 2.029-23.246 6.031zm64.774 2.519a61.83 61.83 0 0 0 1.336 5.314c.865 2.893 2.309 6.9 4.422 10.312.213-.889.48-2.183.666-3.696.322-2.601.463-6.39-.658-9.795-.994-.656-2.418-1.254-4.137-1.735a26.51 26.51 0 0 0-1.629-.4zm-1.036-4.261c.254.078.609.166 1 .261.291.071.617.152.977.246.898.234 2.213.604 3.814 1.228-.293-2.346-1.473-4.805-2.473-6.544-1.037-1.8-2.354-3.623-3.611-5.024a95.271 95.271 0 0 0 .09 6.693c.071 1.473.156 2.593.203 3.14zM24.78 15.585c8.298 0 14.548 2.874 18.585 8.544l2.799-.414c1.646-.242 3.717-.544 5.67-.822-.568-1.498-2.189-5.285-5.389-9.262C42.666 8.935 35.856 3.013 24.844 1.414c-3.71 1.184-8.171 3.796-11.965 7.009-3.014 2.553-6.91 6.584-8.996 11.689 3.561-1.349 10.299-3.736 17.414-4.368a39.836 39.836 0 0 1 3.483-.159zm31.411 6.955l5.342.46c-.092-.86-.244-2.402-.371-4.247-.178-2.555-.34-6.222-.129-9.367-2.223-2.276-6.914-4.898-12.072-6.732C45.557 1.443 40.338 0 34.808 0c-.263 0-.523.003-.782.01a35.99 35.99 0 0 1 9.334 4.873c5.964 4.342 10.281 10.28 12.831 17.657z"/></symbol><symbol id="binoculars" viewBox="0 0 52.6 42.9"><style>.st0{fill:#fff}</style><path class="st0" d="M51 23.9l-.1-.2-4.5-13.3-.3-.5c-.1-.1-1.5-1.6-3.8-2.6l-2.5-5.6-.4-.6c-.2-.2-2.5-1.5-5.2-1-1.7.3-3.1 1-4.2 3l-.2.6c0 .1 0-.4-.1 6-1 .9-1.1 1.9-1.6 2.6-1.3-.4-2.6-.3-3.7.1v-.1c-.4-.8-.5-1.7-1.6-2.6-.1-6.4-.1-5.9-.1-6l-.2-.6c-1-2-2.4-2.6-4.2-3-2.7-.5-5 .8-5.2 1l-.4.6-2.5 5.6c-2.3 1-3.7 2.5-3.8 2.6l-.3.5-4.5 13.4-.1.2C.6 25.7 0 27.8 0 30c0 7.1 5.8 12.9 12.9 12.9 7.1 0 12.9-5.8 12.9-12.9 0-2.3-.6-4.4-1.6-6.2.9-.6 2.6-1.3 4.4 0-1 1.9-1.6 4-1.6 6.3C27 37.2 32.8 43 39.9 43c7.1 0 12.9-5.8 12.9-12.9-.2-2.3-.8-4.4-1.8-6.2zm-38.1 16C7.4 39.9 3 35.5 3 30c0-5.4 4.4-9.9 9.9-9.9 5.4 0 9.9 4.4 9.9 9.9-.1 5.5-4.5 9.9-9.9 9.9zm10-18.9l1.2-4.3s.1-.4.2-1c.9-.5 2.4-1 4-.1.1.6.2 1 .2 1l1.2 4.2c-2.5-1.3-5-.7-6.8.2zm16.8 18.9c-5.4 0-9.9-4.4-9.9-9.9 0-5.4 4.4-9.9 9.9-9.9 5.4 0 9.9 4.4 9.9 9.9s-4.4 9.9-9.9 9.9z"/></symbol><symbol id="calendar" viewBox="0 0 43.9 43.9"><style>.st0{fill-rule:evenodd;clip-rule:evenodd;fill:#acacac}</style><path class="st0" d="M24.7 16.4h-5.5v5.5h5.5v-5.5zm10.9 8.2h-5.5v5.5h5.5v-5.5zM8.6 8.1h4.7c.2 0 .3-.2.3-.3V.3c0-.2-.2-.3-.3-.3H8.6c-.2 0-.4.2-.4.3v7.4c0 .2.2.4.4.4zm27 8.3h-5.5v5.5h5.5v-5.5zm-10.9 8.2h-5.5v5.5h5.5v-5.5zm-11 8.2H8.2v5.5h5.5v-5.5zM36.8 5.4v3.5c0 .2-.2.3-.3.3h-7.1c-.2 0-.4-.2-.4-.3V5.4H14.8v3.5c0 .2-.2.3-.3.3H7.4c-.2 0-.3-.2-.3-.3V5.4H0v38.5h43.9V5.4h-7.1zM41.2 41H2.7V13.6h38.5V41zM13.7 16.4H8.2v5.5h5.5v-5.5zm0 8.2H8.2v5.5h5.5v-5.5zm11 8.2h-5.5v5.5h5.5v-5.5zm5.9-24.7h4.7c.2 0 .3-.2.3-.3V.3c0-.2-.2-.3-.3-.3h-4.7c-.2 0-.3.2-.3.3v7.4c-.1.2.1.4.3.4z"/></symbol><symbol id="club" viewBox="0 0 69.051 83.557"><path fill-rule="evenodd" clip-rule="evenodd" fill="#FFF" d="M69.038 15.133c-.146-.965-1.1-2.159-3.495-3.116C59.478 9.168 53.457 2.818 42.827.89 36.418 0 34.962 0 34.962 0h-.873s-1.456 0-7.863.89C15.595 2.818 10.295 9.08 3.509 12.017.393 13.731.159 13.946.014 15.133c-.146 1.187.874 1.78.874 1.78s5.679 4.45 5.679 19.139c-.146 14.686-3.786 12.462-2.621 20.472 2.33 14.095 19.367 18.99 24.901 20.919 4.44 2.374 5.242 5.785 5.242 5.785s.396.738.873 0c0 0 1.02-4.079 5.242-5.785 5.534-1.929 22.571-6.824 24.901-20.919 1.165-8.011-2.476-5.786-2.621-20.473 0-14.688 5.679-19.139 5.679-19.139s1.02-.593.875-1.779zM34.307 48.068c-4.463 0-8.081-3.687-8.081-8.234 0-4.547 3.618-8.233 8.081-8.233 4.464 0 8.082 3.687 8.082 8.233 0 4.548-3.618 8.234-8.082 8.234z"/></symbol><symbol id="connect" viewBox="0 0 74.775 74.778"><path fill="#FFF" d="M69.729 31.261a32.775 32.775 0 0 0-5.158-12.436c1.631-2.424 1.383-5.745-.759-7.885-2.069-2.068-5.483-2.314-7.88-.747A32.739 32.739 0 0 0 43.481 5.04C42.923 2.172 40.397-.002 37.368 0c-3.029.001-5.554 2.178-6.108 5.045a32.743 32.743 0 0 0-12.443 5.166c-2.398-1.564-5.815-1.311-7.879.756-2.142 2.142-2.387 5.465-.751 7.887A32.752 32.752 0 0 0 5.04 31.296c-2.868.556-5.042 3.083-5.04 6.112.001 3.029 2.178 5.554 5.045 6.108a32.79 32.79 0 0 0 5.16 12.44c-1.632 2.423-1.382 5.746.762 7.886a6.185 6.185 0 0 0 4.405 1.82 6.184 6.184 0 0 0 3.484-1.068 32.775 32.775 0 0 0 12.438 5.145c.558 2.866 3.084 5.041 6.114 5.039s5.553-2.179 6.107-5.046a32.743 32.743 0 0 0 12.432-5.156 6.202 6.202 0 0 0 3.486 1.064 6.186 6.186 0 0 0 4.406-1.825c2.141-2.143 2.387-5.468.75-7.89a32.718 32.718 0 0 0 5.147-12.443c2.866-.558 5.04-3.084 5.039-6.113s-2.178-5.554-5.046-6.108zm.493 8.138c-.463.383-1.032.643-1.677.643a2.672 2.672 0 0 1-2.671-2.668 2.662 2.662 0 0 1 .792-1.896 2.662 2.662 0 0 1 1.876-.775c.645-.001 1.215.258 1.677.641.594.488.994 1.201.994 2.027.001.826-.399 1.54-.991 2.028zm-4.037-7.686c-1.726.707-3.04 1.707-3.584 4.08l-14.693.008c-.273-2.374-.91-3.213-1.826-4.5l10.384-10.44a6.138 6.138 0 0 0 2.946.742c.839-.001 1.652-.129 2.401-.443a29.37 29.37 0 0 1 4.372 10.553zm-28.78 39.502c-.827.001-1.54-.398-2.029-.991-.382-.463-.642-1.032-.643-1.677 0-.73.297-1.393.774-1.877a2.663 2.663 0 0 1 1.895-.795 2.664 2.664 0 0 1 1.896.793c.479.483.775 1.146.775 1.876 0 .645-.258 1.215-.641 1.678-.488.592-1.201.993-2.027.993zM37.37 3.562c.826 0 1.539.398 2.027.991.384.463.643 1.032.644 1.677a2.663 2.663 0 0 1-.774 1.877 2.661 2.661 0 0 1-1.895.795c-.742 0-1.41-.306-1.895-.793a2.662 2.662 0 0 1-.775-1.876c0-.645.258-1.214.641-1.677.488-.593 1.2-.994 2.027-.994zm7.138 33.823c.001.618-.104 1.208-.25 1.781a7.059 7.059 0 0 1-.757 1.813 7.123 7.123 0 0 1-4.328 3.278 7.144 7.144 0 0 1-1.781.253c-.619 0-1.207-.104-1.782-.251a7.093 7.093 0 0 1-1.814-.756 7.133 7.133 0 0 1-3.277-4.33 7.121 7.121 0 0 1-.251-1.78c0-.619.104-1.207.25-1.779a7.126 7.126 0 0 1 3.275-4.335 7.128 7.128 0 0 1 1.812-.759c.574-.147 1.163-.251 1.781-.251.618-.001 1.207.104 1.781.249a7.152 7.152 0 0 1 5.091 5.089c.145.572.25 1.16.25 1.778zm14.639-24.656c.089-.01.17-.052.262-.052.711 0 1.383.277 1.887.781.588.589.808 1.378.73 2.15-.058.59-.276 1.174-.729 1.626-.512.511-1.209.758-1.908.755-.685-.004-1.369-.252-1.867-.753a2.667 2.667 0 0 1-.781-1.893c0-.682.258-1.364.779-1.881.438-.44 1.016-.671 1.627-.733zm-5.199 5.561L43.464 28.688c-1.285-.915-2.125-1.55-4.5-1.821l-.007-14.695c2.374-.544 3.371-1.861 4.076-3.586a29.456 29.456 0 0 1 10.581 4.365c-.717 1.719-.555 3.683.334 5.339zM31.316 8.591c.707 1.725 2.102 3.04 3.685 3.583l.007 14.695c-1.583.273-2.816.909-4.1 1.826l-10.25-10.388c.892-1.656.926-3.621.207-5.339 3.136-2.1 6.622-3.611 10.451-4.377zm-17.86 4.892a2.654 2.654 0 0 1 1.89-.784c.09 0 .17.043.258.05.61.062 1.188.292 1.628.732.521.519.78 1.382.782 2.064.002.685-.256 1.28-.775 2.072h-.002c-.002 0-.004-.178-.004-.176-.498.497-1.182.654-1.865.66a2.7 2.7 0 0 1-1.909-.797c-.452-.451-.673-1.058-.731-1.653-.078-.768.14-1.58.728-2.168zm-.51 7.641a6.237 6.237 0 0 0 2.403.478c1.051-.001 2.048-.287 2.945-.772l10.393 10.48c-.915 1.288-1.55 2.129-1.821 4.502l-14.693.008c-.545-2.373-1.862-3.372-3.588-4.077.759-3.825 2.267-7.484 4.361-10.619zM3.562 37.406c0-.827.398-1.539.992-2.028.462-.382 1.032-.643 1.677-.643a2.66 2.66 0 0 1 1.876.773 2.658 2.658 0 0 1 .002 3.79 2.662 2.662 0 0 1-1.876.776c-.645 0-1.215-.259-1.677-.642-.594-.486-.994-1.199-.994-2.026zM8.59 43.46c1.726-.707 3.041-2.102 3.583-3.685l14.694-.007c.275 1.582.909 2.816 1.826 4.102l-10.4 10.265c-1.635-.839-3.608-.872-5.311-.2-2.107-3.14-3.624-6.636-4.392-10.475zm7.023 18.575c-.772.065-1.565-.146-2.13-.712-.59-.588-.807-1.381-.732-2.149.06-.592.277-.967.73-1.419.503-.502 1.171-.572 1.882-.572h.006c.713 0 1.386.066 1.888.572.522.521.781 1.1.781 1.787 0 .68-.26 1.311-.78 1.83-.442.445-1.038.608-1.645.663zm5.214-5.55l10.09-10.396c1.285.916 2.52 1.55 4.103 1.821l.007 14.695c-1.582.546-2.976 1.86-3.681 3.588-3.83-.762-7.241-2.271-10.376-4.366.715-1.72.75-3.684-.143-5.342zm22.236 9.703c-.707-1.727-1.706-3.041-4.08-3.584l-.008-14.695c2.373-.275 3.213-.909 4.5-1.825L53.92 56.467a6.136 6.136 0 0 0-.747 2.946c.001.84.129 1.651.445 2.4a29.374 29.374 0 0 1-10.555 4.375zm18.255-4.893c-.563.564-1.356.779-2.128.712-.608-.05-.992-.266-1.439-.71-.502-.501-.57-1.169-.57-1.882v-.004c0-.713.066-1.172.569-1.678.505-.506.966-.574 1.678-.574h.005c.71 0 1.38.066 1.886.572.451.453.67.93.729 1.521.076.769-.141 1.456-.73 2.043zm.492-7.608c-1.703-.671-3.676-.561-5.309.279L46.088 43.858c.915-1.285 1.548-2.52 1.821-4.102l14.695-.008c.545 1.582 1.86 2.976 3.587 3.682-.764 3.84-2.277 7.112-4.381 10.257z"/></symbol><symbol id="connections" viewBox="0 0 55.6 45"><style>.st0{fill:#fff}</style><path class="st0" d="M27.9 23.6c-6.5 0-11.8-5.3-11.8-11.8S21.4 0 27.9 0s11.8 5.3 11.8 11.8-5.3 11.8-11.8 11.8zm0-19.6c-4.3 0-7.8 3.5-7.8 7.8s3.5 7.8 7.8 7.8 7.8-3.5 7.8-7.8S32.2 4 27.9 4zM42 45H13.3c-1.1 0-2-.9-2-2v-8.8c0-.5.2-.9.5-1.3l5.2-6c.6-.7 1.5-.9 2.3-.5 0 0 4.9 2.2 8.4 2.2s8.6-2.2 8.7-2.2c.8-.4 1.8-.1 2.4.6l4.8 6.1c.3.4.4.8.4 1.2V43c0 1.1-.9 2-2 2zm-26.7-4H40v-6l-3.4-4.4c-2 .8-5.8 2-8.9 2s-6.7-1.2-8.6-2l-3.8 4.3V41zM49.4 16.9c0-4-2.8-7.3-6.6-8.1.2 1.3.3 2.8.2 4.3 1.4.7 2.4 2.2 2.4 3.8 0 2.4-1.9 4.3-4.3 4.3-.4 0-.7-.1-1.1-.2l-1.2 1.5c.3.3 1.3 1.4 2.5 2.7 4.5-.1 8.1-3.8 8.1-8.3zM54.6 29.6l-6.8-3.9c-.5-.3-1.2-.4-1.8-.1s-2 .8-3.4 1.1c1.3 1.4 2.5 2.7 3 3.3.4-.1.7-.2 1-.4l5 2.8v2.4h-4.2v4h6.2c1.1 0 2-.9 2-2v-5.6c0-.6-.4-1.3-1-1.6z"/><g><path class="st0" d="M13.3 8.8c-4 .6-7 4-7 8.2 0 4.5 3.6 8.2 8.1 8.3 1.3-1.5 2.5-2.7 2.8-3-.4-.4-.7-.9-1-1.3-.5.2-1 .3-1.6.3-2.4 0-4.3-1.9-4.3-4.3 0-1.9 1.3-3.5 3-4.1-.1-1.1-.2-2.1-.1-3 0-.4.1-.7.1-1.1zM8.3 36.3V35H4v-2.4l5-2.8c.3.1.7.2 1.1.4.5-.6 1.7-1.9 3-3.3-1.4-.3-2.9-.8-3.5-1.1-.6-.2-1.2-.2-1.8.1L1 29.8c-.6.4-1 1-1 1.7v5.6c0 1.1.9 2 2 2h6.3v-2.8z"/></g></symbol><symbol id="create-profile" viewBox="0 0 69.327 72.274"><path fill="#FFF" d="M47.543 46.664c-2.002-.876-7.547-2.36-8.213-4.883-1.049-3.986 2.924-7.025 4.69-10.164 1.858-3.311 3.407-7.79 3.71-11.534C48.814 6.647 40.572-1.212 28.764.153c-8.586.99-13.713 7.395-14.264 15.64-.561 8.399 2.558 14.604 5.87 19.152 1.449 1.99 2.969 3.271 2.739 5.669-.273 2.834-3.303 3.625-5.471 4.496-2.571 1.035-5.336 2.603-6.645 3.326-4.501 2.489-9.442 5.485-10.552 9.58-2.458 9.081 5.851 11.827 12.709 13.094 5.888 1.084 12.522 1.166 17.982 1.164 9.872-.003 27.628-.403 30.489-7.824.813-2.108.462-5.465-.002-6.844-1.798-5.351-8.967-8.699-14.076-10.942zM68.482 33.91l-4.169.001-.002-4.169a.843.843 0 0 0-.844-.843h-2.741a.843.843 0 0 0-.843.844v4.168l-4.17.001a.844.844 0 0 0-.842.846l.001 2.741c0 .468.378.844.843.844l4.17-.001.002 4.171a.84.84 0 0 0 .844.841l2.741-.001a.841.841 0 0 0 .843-.841l-.001-4.172 4.169-.001a.844.844 0 0 0 .844-.845v-2.741a.845.845 0 0 0-.845-.843z"/></symbol><symbol id="email" viewBox="0 0 22.9 17.4"><path d="M0 0v2.8l11.5 5.5 11.4-5.5V0H0zm0 6v11.4h22.9V6.1l-11.4 5.5L0 6z" fill="#fff"/></symbol><symbol id="facebook" viewBox="0 0 50 50"><path fill="none" d="M0 0v50h50V0H0z"/><path fill="#FFF" d="M33.477 25.016H27.93v19.776h-8.218V25.016h-3.909v-6.987h3.909v-4.522c0-3.232 1.537-8.297 8.293-8.297l6.088.024v6.784h-4.419c-.72 0-1.744.362-1.744 1.903v4.107h6.267l-.72 6.988z"/></symbol><symbol id="follow" viewBox="0 0 47.9 43.4"><style>.st0,.st1{fill:#fff}.st1{fill-rule:evenodd;clip-rule:evenodd}</style><path class="st0" d="M19.1 22.7c-6.3 0-11.3-5.1-11.3-11.3S12.8 0 19.1 0s11.3 5.1 11.3 11.3-5 11.4-11.3 11.4zm0-18.9c-4.2 0-7.5 3.3-7.5 7.5s3.3 7.5 7.5 7.5 7.5-3.3 7.5-7.5-3.3-7.5-7.5-7.5zM1.9 43.4c-1 0-1.9-.9-1.9-1.9V32c0-.8.5-1.4 1.1-1.7l8.3-4.9c.5-.2 1.1-.2 1.6 0 0 0 4.5 2.1 8.1 2.1 2.9 0 7.2-1.5 8.5-2.1.6-.2 1.1-.2 1.7.1l7.8 5.8c.6.4 1 1 1 1.6v8.4c0 1-.9 1.9-1.9 1.9H2.5c-.2.2-.4.2-.6.2zm1.9-3.9h30.6v-5.3l-6.1-4.8c-1.8.7-5.8 2.1-9.1 2.1-3.5 0-7.3-1.4-9-2.1l-6.4 4v6.1z"/><path class="st1" d="M47.9 17h-6v-6.1h-3V17h-6v2.9h6V26h3v-6.1h6z"/></symbol><symbol id="football-field" viewBox="0 0 78.807 57.466"><path fill-rule="evenodd" clip-rule="evenodd" stroke="#ACACAC" stroke-miterlimit="10" d="M.7.7v56.065h77.406V.7H.7zm75.37 54.117H2.649V2.527H76.07v52.29z"/><path fill-rule="evenodd" clip-rule="evenodd" stroke="#ACACAC" stroke-miterlimit="10" d="M14.341 37.931c3.619-1.518 6.17-5.156 6.17-9.408 0-4.251-2.552-7.887-6.17-9.405m0 2.368a8.252 8.252 0 0 1 3.898 7.018 8.252 8.252 0 0 1-3.898 7.018m49.692-16.507c-3.956 1.358-6.808 5.157-6.808 9.641 0 4.483 2.852 8.283 6.808 9.641m0-2.493c-2.503-1.421-4.195-4.103-4.195-7.183s1.691-5.762 4.195-7.184m-22.735-2.134c4.085.892 7.145 4.529 7.145 8.882s-3.06 7.99-7.145 8.882m-3.573.064c-4.247-.766-7.47-4.479-7.47-8.946 0-4.468 3.223-8.181 7.47-8.946m3.573-2.252V2.527h-3.573v14.408m0 0c-5.508.788-9.743 5.523-9.743 11.25 0 5.726 4.235 10.462 9.743 11.25v15.382h3.573V39.382c5.349-.925 9.419-5.584 9.419-11.197s-4.07-10.273-9.419-11.198m-3.573 2.252v17.893m3.573-.065V19.303m22.735 18.993v5.478l12.017.002V41.83H65.982V15.522H76.05V13.57H64.033v5.445m0 2.422v14.367m7.145-14.115v14.615h4.872v-2.27h-2.601V23.96h2.601v-2.271h-4.872zm-56.837-2.571V13.57H2.649v1.953h9.241V41.83H2.649v1.945h11.692v-5.843m0-2.41V21.486m-6.745.203H3.049v2.271h2.276v10.075H3.049v2.27h4.547V21.689z"/></symbol><symbol id="football" viewBox="0 0 47.302 47.121"><path fill-rule="evenodd" clip-rule="evenodd" fill="#FFF" d="M23.651 0C10.589 0 0 10.549 0 23.561c0 13.013 10.589 23.561 23.651 23.561s23.651-10.548 23.651-23.561C47.302 10.549 36.713 0 23.651 0zm17.268 12.154s3.038 3.297 3.566 10.472l-3.941-4.675.375-5.797zM39.23 9.536l-.751 8.041-4.881 2.617-9.197-6.544.188-6.171s4.429-2.126 7.32-3.179C36.3 6.399 39.23 9.536 39.23 9.536zM31.909 21.69l-3.19 10.098H18.207L15.016 21.69l8.447-6.17 8.446 6.17zM28.972 3.367l-5.58 2.338-5.533-2.335s3.725-1.619 11.113-.003zm-13.918.939c2.902 1.02 7.353 3.092 7.353 3.092l.228 6.146-9.168 6.614L8.561 17.6l-.805-8.003s2.914-3.155 7.298-5.291zm-9.462 7.872l.559 6.005-3.902 4.553c0-.001-.427-4.027 3.343-10.558zM2.821 25.617c.994-.885 5.066-5.983 5.066-5.983l5.253 2.805 3.189 9.911-3.002 3.553-8.068-1.87c.001-.001-2.597-5.474-2.438-8.416zm4.1 11.011l5.916 1.276 3.184 5.077s-3.983-.805-9.1-6.353zm12.037 7.314l-3.942-6.731 2.816-3.366h11.263l2.814 3.18-3.941 6.918c-4.544 1.398-9.01-.001-9.01-.001zm12.014-.748l3.003-5.235 5.819-1.496s-1.971 3.541-8.822 6.731zm10.886-9.162l-8.072 1.87-3.002-3.553 3.19-9.911 5.256-2.805s4.073 5.099 5.067 5.983c.161 2.943-2.439 8.416-2.439 8.416z"/></symbol><symbol id="gplus" viewBox="0 0 50 50"><path fill="none" d="M.012 17.025v31.176c0 .182-.008.369.028.546C.204 49.521.808 50 1.608 50h46.813c.751-.002 1.354-.455 1.525-1.172a2.75 2.75 0 0 0 .052-.648C50 43.52 50 38.86 50 34.2v-7.903c0-10.774 0-13.645-.002-24.418 0-.233 0-.475-.055-.699C49.761.433 49.154.008 48.31.008 32.775.008 17.238.011 1.703 0 .741-.001-.008.699 0 1.743c.029 3.606.012 7.211.012 10.818v4.464z"/><g fill-rule="evenodd" clip-rule="evenodd" fill="#FFF"><path d="M31.04 6.14a1.24 1.24 0 0 0-.024-.081h-.328c-2.798 0-5.596.005-8.394-.002-1.152-.004-2.297.04-3.437.227-1.882.309-3.689.856-5.285 1.941-2.979 2.025-4.522 4.844-4.065 8.544.333 2.7 1.83 4.664 4.234 5.848 1.384.682 2.864.902 4.395.766.245-.021.491-.03.74-.044-.004.043-.001.063-.008.08-.042.116-.083.233-.13.348-.348.854-.368 1.725-.124 2.608.202.734.627 1.339 1.073 1.933.052.069.098.144.148.219-.912.093-1.786.172-2.657.271-1.639.188-3.245.528-4.777 1.164-1.729.718-3.263 1.717-4.309 3.35-1.083 1.692-1.434 3.52-.77 5.464.589 1.726 1.816 2.887 3.363 3.721 1.771.955 3.69 1.325 5.667 1.42 1.384.066 2.767.014 4.138-.217 1.918-.321 3.745-.91 5.382-2.003 2.33-1.554 3.893-3.638 4.152-6.564.134-1.53-.179-2.965-.99-4.271-.827-1.33-2.002-2.315-3.17-3.304-.72-.61-1.468-1.187-2.171-1.813-.437-.39-.651-.916-.662-1.528-.012-.708.259-1.3.729-1.773.646-.649 1.338-1.249 2.017-1.863 2.29-2.075 3.064-4.656 2.423-7.686-.385-1.82-1.417-3.242-2.774-4.438-.096-.084-.19-.169-.35-.312.187-.01.286-.018.383-.018.729-.001 1.46.01 2.189-.009.192-.005.404-.07.572-.168.455-.266.89-.563 1.334-.848l1.486-.962zM19.844 41.835c.221-.014.575-.032.929-.06 1.078-.084 2.117-.322 3.108-.779 3.197-1.473 3.859-5.506 1.449-7.893-1.04-1.029-2.207-1.887-3.358-2.77-.345-.266-.704-.382-1.115-.354-1.005.069-2.014.112-3.014.234-1.36.167-2.673.526-3.884 1.21-2.558 1.443-3.146 3.934-2.357 6.178.521 1.484 1.624 2.446 2.973 3.13 1.616.821 3.354 1.068 5.269 1.104zm-.192-19.827c.35-.053.708-.072 1.048-.164 2.265-.608 3.184-2.084 3.382-3.921.131-1.213-.011-2.405-.288-3.58-.404-1.71-1.062-3.303-2.22-4.636-.83-.955-1.838-1.603-3.105-1.714-2.161-.189-4.067 1.236-4.578 3.394-.279 1.181-.251 2.369-.056 3.557.283 1.727.834 3.349 1.859 4.771.98 1.359 2.235 2.238 3.958 2.293zM30.936 24.416v-2.508h.334c1.375 0 2.75-.006 4.125.006.255.002.335-.065.332-.331-.011-1.416.002-2.831-.011-4.247-.001-.286.072-.382.363-.371.597.024 1.196.016 1.795.003.22-.005.287.062.287.291-.011 1.444-.007 2.888-.005 4.333 0 .093.008.187.014.317h.345c1.394 0 2.788.006 4.181-.005.249-.002.325.075.319.323a38.653 38.653 0 0 0 0 1.865c.008.27-.087.333-.339.331-1.402-.011-2.806.001-4.208-.011-.246-.002-.321.065-.317.321.011 1.453 0 2.907.011 4.36.001.239-.069.314-.301.309a33.649 33.649 0 0 0-1.825 0c-.252.008-.319-.087-.317-.331.009-1.444 0-2.888.009-4.333.002-.247-.061-.33-.312-.327-1.375.012-2.751.006-4.126.006l-.354-.001z"/></g></symbol><symbol id="home" viewBox="0 0 46 45.5"><style>.st0{fill:#fff}</style><path class="st0" d="M23 14.1l14 14v13.3h-6v-12H15v12H9V28.1l14-14m0-5.6l-18 18v19h14v-12h8v12h14v-19l-18-18z"/><path class="st0" d="M23 0L0 23l2.8 2.8L23 5.7l20.2 20.2L46 23z"/></symbol><symbol id="logout" viewBox="0 0 43.9 50"><style>.st0{fill-rule:evenodd;clip-rule:evenodd}</style><path class="st0" d="M19.2 0v21.9h5.6V0h-5.6z"/><path class="st0" d="M33.7 9.5s-1-.6-1.8-1v6.1c4.1 3 6.7 7.9 6.7 13.4 0 9.2-7.5 16.7-16.7 16.7S5.2 37.2 5.2 28c0-5.5 2.6-10.3 6.7-13.4v-6c-.8.4-1.8 1-1.8 1C4 13.4 0 20.3 0 28c0 12.1 9.8 22 21.9 22 12.1 0 21.9-9.8 21.9-21.9.1-7.8-4-14.7-10.1-18.6z"/></symbol><symbol id="marketplace" viewBox="0 0 45.4 45.4"><style>.st0{fill:#fff}</style><path class="st0" d="M22.7 45.4C10.2 45.4 0 35.2 0 22.7S10.2 0 22.7 0s22.7 10.2 22.7 22.7-10.2 22.7-22.7 22.7zm0-41.4C12.4 4 4 12.4 4 22.7s8.4 18.7 18.7 18.7S41.4 33 41.4 22.7 33 4 22.7 4z"/><path class="st0" d="M22.7 44.4c-7 0-12.4-9.5-12.4-21.7S15.7 1 22.7 1s12.4 9.5 12.4 21.7-5.4 21.7-12.4 21.7zm0-41.4c-5.6 0-10.4 9-10.4 19.7s4.8 19.7 10.4 19.7 10.4-9 10.4-19.7S28.3 3 22.7 3z"/><path class="st0" d="M2.8 21.7h39.6v2H2.8z"/><path class="st0" d="M21.7 2.8h2v39.8h-2z"/><path class="st0" d="M38.6 35.1c-3.5-2.3-9.7-3.7-16.2-3.7-6.3 0-12.1 1.3-15.7 3.5l-1-1.7c3.9-2.4 10-3.7 16.7-3.7 6.9 0 13.4 1.5 17.2 4.1l-1 1.5zM22.4 16.2c-6.7 0-12.8-1.4-16.7-3.7l1-1.7c3.5 2.2 9.4 3.5 15.7 3.5 6.5 0 12.6-1.4 16.2-3.7l1.1 1.7c-3.9 2.4-10.4 3.9-17.3 3.9z"/></symbol><symbol id="messages" viewBox="0 0 46.3 45.5"><style>.st0{fill:#fff}</style><path class="st0" d="M0 8.8V38h9.3v7.5l7.5-7.5h21.5V8.8H0zM34.3 34H4V12.8h30.3V34z"/><path class="st0" d="M46.3 32.7h-6.1v-4h2.1V4h-31v3.2h-4V0h39z"/></symbol><symbol id="notifications" viewBox="0 0 45 44.3"><style>.st0{fill:#fff}</style><path class="st0" d="M43.6 22.6c.1-.2 2.6-5.3.6-11C43 8.2 40.6 5.5 37 3.3l.8-1.5L34.2 0l-.8 1.5c-4-1.6-7.8-1.8-11.2-.7-5.6 1.9-8.1 6.9-8.2 7.1L5.9 24.5l-4.1-2L0 26.1l37.1 18.2 1.8-3.6-3.4-1.7 8.1-16.4zM31.9 37.4l-22.4-11 8.1-16.6s1.9-3.7 5.9-5.1c2.9-1 6.3-.5 10 1.3 10.7 5.2 6.9 13.9 6.5 14.8l-8.1 16.6z"/><path transform="rotate(26.565 16.947 39.79)" class="st0" d="M13.2 37.8h7.4v4h-7.4z"/></symbol><symbol id="paperclip" viewBox="0 0 49.4 45.2"><path class="st0" d="M6.5 22.1l-1.6-2.9L37.4 0l12 21.2-40.7 24L0 29.7 31.7 11l1.2-.7 5.3 9.4-24.6 14.6-1.8-3.2 21.3-12.6-1.7-3L5 31l5.2 9.3L44.6 20 36 4.9 6.5 22.1z"/></symbol><symbol id="picture" viewBox="0 0 14 14"><path fill-rule="evenodd" clip-rule="evenodd" fill="#6F6D6E" d="M0 0v14h14V0H0zm8.842 2.211a1.473 1.473 0 1 1 .001 2.947 1.473 1.473 0 0 1-.001-2.947zm-7.368 9.578V8.105L5.159 4.42l1.474 5.158 1.474-2.211 3.684 4.421H1.474z"/></symbol><symbol id="plus" viewBox="0 0 46.8 46.9"><style>.st0{fill:#fff}</style><path class="st0" d="M26.1 46.9h-5.3V26.1H0v-5.3h20.8V0h5.3v20.8h20.8v5.3H26.1v20.8z"/></symbol><symbol id="profile-filled" viewBox="0 0 26 26"><path d="M19.3 7.1c0 3.5-1.8 8.1-6.3 8.1-4.7 0-6.3-4.6-6.3-8.1S8.2 0 13 0c5 0 6.3 3.6 6.3 7.1zM17.8 17.3c-.7-.3-1.9-.5-2.6-.5h-4.4c-.7 0-1.9.2-2.6.5l-7 2.7c-.6.3-1.2 1.1-1.2 1.8v2.8c0 .8.6 1.4 1.3 1.4h23.3c.7 0 1.3-.6 1.3-1.3v-2.8c0-.7-.6-1.6-1.2-1.8l-6.9-2.8z"/></symbol><symbol id="profile-pic" viewBox="0 0 54.987 44"><path fill-rule="evenodd" clip-rule="evenodd" d="M22.001 25.689c7.582 0 10.696-7.794 10.696-13.697C32.697 6.09 30.391 0 22.001 0 13.912 0 11.3 6.09 11.3 11.992c.001 5.903 2.815 13.697 10.701 13.697zm19.89 8.163l-11.75-4.549c-1.16-.448-3.131-.814-4.376-.814h-7.531c-1.243 0-3.213.366-4.374.814L2.11 33.852C.951 34.298 0 35.685 0 36.928v4.812C0 42.984 1.02 44 2.265 44h39.474A2.268 2.268 0 0 0 44 41.74v-4.812c0-1.243-.949-2.63-2.109-3.076zm6.294-14.005v-6.838h-3.386v6.838h-6.803v3.341h6.803v6.807h3.386v-6.807h6.803v-3.341h-6.803z"/></symbol><symbol id="profile" viewBox="0 0 44.8 45.5"><style>.st0{fill:#fff}</style><path class="st0" d="M22.4 23.8c-6.6 0-11.9-5.3-11.9-11.9S15.8 0 22.4 0s11.9 5.3 11.9 11.9S29 23.8 22.4 23.8zm0-19.8c-4.4 0-7.9 3.5-7.9 7.9s3.5 7.9 7.9 7.9 7.9-3.5 7.9-7.9S26.8 4 22.4 4zM2 45.5c-1.1 0-2-.9-2-2v-9.9c0-.8.5-1.5 1.2-1.8l11.1-5.1c.5-.2 1.2-.2 1.7 0 0 0 4.7 2.2 8.5 2.2 3 0 7.5-1.6 8.9-2.2.6-.2 1.2-.2 1.8.1l10.6 6.1c.6.4 1 1 1 1.7v8.8c0 1.1-.9 2-2 2H2.6c-.2.1-.4.1-.6.1zm2-4.1h36.8v-5.6l-8.8-5c-1.9.7-6.1 2.2-9.5 2.2-3.7 0-7.7-1.5-9.4-2.2L4 35v6.4z"/></symbol><symbol id="rotate" viewBox="0 0 28 25"><path fill-rule="evenodd" clip-rule="evenodd" fill="#6F6D6E" d="M20.231 8.78s-5.971-5.546-11.435 0c-5.464 5.547 0 11.607 0 11.607L4.314 25s-9.707-10.769 0-20.621c9.707-9.854 20.314 0 20.314 0L28 .957v11.396H16.712l3.519-3.573z"/></symbol><symbol id="rugby-ball" viewBox="0 0 65.072 65.209"><path fill="#FFF" d="M60.586 4.741C57.547 1.64 52.749 0 46.715 0 35.4 0 22.283 5.75 14.073 14.309 8.475 20.145 3.605 29.205 1.364 37.953-1.198 47.958-.127 56.004 4.382 60.605c2.951 3.011 7.53 4.604 13.244 4.604h.003c11.159 0 25.144-5.953 33.25-14.156 8.335-8.437 14.172-22.028 14.193-33.056.013-5.664-1.54-10.248-4.486-13.256zm-44.364 41.5s-3.993 1.862-5.649 1.358c-1.354-.41-2.137-4.555-.976-10.074 1.197-5.699 3.246-13.426 9.971-20.958l.014-.014c3.624-3.779 8.353-6.971 13.674-9.231C38.228 5.21 43.47 4.048 48.018 4.048c3.378.001 6.198.634 8.178 1.805.782.542.83 3.484-1.013 6.886-1.841 3.402-7.398 10.938-14.027 16.802-6.63 5.863-21.356 15.401-24.934 16.7zm31.816-.754c-4.502 4.558-11.29 8.388-18.117 10.543a45.2 45.2 0 0 1-.622.122c-2.632.475-5.79.657-7.089.343-1.74-.42-1.331-1.961.041-2.871 1.371-.911 12.312-9.611 18.193-15.611 5.407-5.517 16.493-17.264 19.612-23.681.09-.185.3-.183.318-.002.087.825.118 1.624.117 2.353-.018 9.407-5.255 21.52-12.453 28.804z"/></symbol><symbol id="search" viewBox="0 0 41.8 44.5"><style>.st0{fill:#fff}</style><path class="st0" d="M29 27.8C33.9 21.2 33.5 11 27.6 5c-3-3.3-7-5-11.4-5S7.9 1.9 4.7 4.9c-.1.2-.4.4-.6.7-5.7 6.6-5.4 17.6.6 23.8 3.2 3.1 7.1 4.9 11.5 4.9 2.9 0 5.7-.8 8.1-2.3.2-.1.3-.2.5-.3l11 11.6s1.3 2 3.3.8l2.7-2.3-12.8-14zm-4.4-2c-2.2 2.3-5.2 3.6-8.4 3.6s-6.1-1.4-8.4-3.6c-4.4-4.5-4.6-12.5-.4-17.4.1-.2.3-.3.4-.4 2.3-2.3 5.2-3.6 8.4-3.6s6.2 1.2 8.4 3.6c4.6 4.7 4.6 13.1 0 17.8z"/></symbol><symbol id="settings" viewBox="-282 374.2 46.1 45.9"><path class="st0" d="M-271.5 420.1c-1.8 0-4.4-.7-7.2-3.5-5.1-5.1-2.7-9.4-2.6-9.6l.1-.2 13-12.8c-.6-3-1.6-10.8 3.9-15.8 6.8-6.1 15.2-3.7 16.8-2.5l2 1.4-1.8 1.7c-2.5 2.4-5.7 5.8-7 7.3l1 5.6 5.3 1.5 9.2-8.7 1.3 2.1c1.7 2.9 3.6 10.1-2 16.4-4.5 5.1-12.6 4.1-15.7 3.5l-13.2 13-.2.1c-.2 0-1.3.5-2.9.5zm-6.4-10.9c-.1.5-.4 2.2 2 4.6 2.6 2.6 4.5 2.4 5.1 2.3l14.3-14.1 1.1.3c.1 0 9 2.4 12.8-2 3.1-3.5 3-7 2.5-9.3l-6.8 6.5-9.9-2.7-1.8-10 .7-.7c.1-.2 2.7-3 5.4-5.8-2.4-.2-6 .1-9.1 2.9-4.9 4.4-2.4 12.8-2.4 12.8l.3 1.2-.9.8-13.3 13.2z"/></symbol><symbol id="twitter" viewBox="0 0 50 50"><path fill="none" d="M0 0v50h50V0H0z"/><path fill="#FFF" d="M40.089 17.394c.016.314.022.629.022.947 0 9.695-7.382 20.876-20.875 20.876a20.772 20.772 0 0 1-11.247-3.296c.576.068 1.159.099 1.75.099a14.7 14.7 0 0 0 9.108-3.137 7.341 7.341 0 0 1-6.85-5.095c.448.087.906.131 1.38.131a7.16 7.16 0 0 0 1.93-.258 7.34 7.34 0 0 1-5.88-7.194v-.092a7.24 7.24 0 0 0 3.322.917 7.327 7.327 0 0 1-3.264-6.106c0-1.345.363-2.602.993-3.689a20.814 20.814 0 0 0 15.121 7.666 7.422 7.422 0 0 1-.189-1.673 7.335 7.335 0 0 1 7.338-7.333c2.106 0 4.016.891 5.354 2.313 1.67-.327 3.24-.938 4.662-1.776a7.367 7.367 0 0 1-3.23 4.056c1.484-.176 2.9-.567 4.215-1.153a14.878 14.878 0 0 1-3.66 3.797z"/></symbol><symbol id="twitter2" viewBox="0 0 49.938 50"><path d="M24.969 0C11.178 0 0 11.193 0 25c0 13.808 11.178 25 24.969 25s24.97-11.192 24.97-25c0-13.807-11.179-25-24.97-25zm10.156 20.48c.01.212.014.424.014.638 0 6.507-4.947 14.01-13.993 14.01-2.777 0-5.361-.816-7.538-2.213a9.88 9.88 0 0 0 1.173.069 9.858 9.858 0 0 0 6.108-2.108 4.924 4.924 0 0 1-4.594-3.419 4.95 4.95 0 0 0 2.221-.085 4.925 4.925 0 0 1-3.945-4.828l.001-.062c.662.369 1.421.59 2.227.616a4.923 4.923 0 0 1-2.188-4.099 4.9 4.9 0 0 1 .666-2.475 13.954 13.954 0 0 0 10.137 5.145 4.886 4.886 0 0 1-.127-1.122 4.92 4.92 0 0 1 8.507-3.369 9.827 9.827 0 0 0 3.123-1.195 4.94 4.94 0 0 1-2.162 2.724 9.813 9.813 0 0 0 2.824-.775 9.977 9.977 0 0 1-2.454 2.548z" class="cls-1"/></symbol><symbol id="whistle" viewBox="0 0 78 69.001"><path fill-rule="evenodd" clip-rule="evenodd" fill="#FFF" d="M76.32 0L20.677 12.244s-1.101.159-2.161.896c-1.061.736-9.424 8.541-15.547 17.679-1.4 1.951-3.221 4.3-2.94 12.722.04 1.672.64 10.312 7.263 16.783 5.883 5.694 17.607 11.309 27.191 7.347 6.662-2.887 11.524-8.441 15.606-16.484 2.521-5.157 5.642-15.669 6.122-19.71l11.705-6.152L78 6.988 76.32 0zM25.119 19.282l12.876-2.918-4.426 4.863-13.45 4.234 5-6.179zm18.279 31.754C40.524 62.479 28.741 66.713 21.786 64.31 14.831 61.907 7.3 57.102 4.197 46.688 2.759 40.909 4.75 35.25 8 33c4.917-2.083 17.5-3.833 25-2 0 0 13.386 7.22 10.398 20.036zm4.368-3.376c.115-5.149-3.047-10.069-3.047-10.069s4.283-2.174 6.036-2.976c.575 4.635-2.155 11.586-2.989 13.045zm-4.828-13.045s-1.639-2.803-4.599-5.092l23.566-7.724.805 2.231-19.772 10.585zM74.782 6.98l-9.14 15.677-.805-3.032L74.839 4.177l-.057 2.803z"/></symbol><symbol id="world" viewBox="0 0 45.988 46.007"><path fill-rule="evenodd" clip-rule="evenodd" d="M45.987 22.088a22.913 22.913 0 0 0-4.86-13.262l-.457-.564a23.298 23.298 0 0 0-.67-.768C36.166 3.29 30.796.511 24.776.05L23.9 0h-1.812l-.875.05A22.944 22.944 0 0 0 6.167 7.3l-.179.194c-.374.41-.734.833-1.078 1.27l-.135.172A22.908 22.908 0 0 0 0 22.088V23.9a22.892 22.892 0 0 0 4.688 13.039l.164.213c.339.434.693.854 1.062 1.263l.155.169c3.329 3.612 7.811 6.087 12.836 7.061.624.121 2.307.294 2.307.294.29.022.582.039.875.051.995.06 2.688-.051 2.688-.051a22.943 22.943 0 0 0 15.143-7.354l1.133-1.325a22.911 22.911 0 0 0 4.937-13.358l-.001-1.814zM7.481 8.554a21.18 21.18 0 0 1 9.735-5.963l-.085.09c-1.824 1.926-3.359 4.724-4.456 8.097l-.137-.035c-2.128-.547-3.898-1.256-5.162-2.076l.105-.113zm-1.314 1.55l.121.08c1.448.938 3.461 1.742 5.869 2.349l-.036.138c-.744 2.855-1.189 6.044-1.257 9.418H1.812a21.1 21.1 0 0 1 4.355-11.985zm.091 25.903l-.128-.166A21.106 21.106 0 0 1 1.812 23.9h9.051c.07 3.496.545 6.794 1.338 9.727l-.161.041c-2.372.606-4.354 1.407-5.782 2.339zm10.814 7.349a21.184 21.184 0 0 1-9.591-5.92l.118-.073c1.271-.776 3.001-1.447 5.062-1.968l.069-.017c1.11 3.351 2.655 6.122 4.486 8.019l-.144-.041zm5.016.818a36.845 36.845 0 0 1-.475-.023l-.117-.008c-2.863-.896-5.335-4.324-6.895-9.172l.167-.031c2.207-.407 4.688-.654 7.32-.7v9.934zm0-11.748c-2.875.045-5.587.322-7.997.786-.722-2.786-1.159-5.948-1.232-9.312h9.229v8.526zm0-18.521v8.184h-9.232c.058-3.293.468-6.395 1.151-9.146l.197.038c2.382.451 5.053.722 7.884.766v.158zm0-11.069V11.933c-2.74-.049-5.317-.316-7.592-.753l.041-.13c1.411-4.502 3.602-7.815 6.166-9.067.059-.029.118-.056.177-.083 0 0 .589-.079 1.208-.084v1.02zm6.976-.18h-.068a21.18 21.18 0 0 1 9.482 5.866l.134.145c-1.256.815-3.013 1.521-5.124 2.066l-.176.044c-1.113-3.426-2.679-6.258-4.54-8.187l.292.066zM23.9 11.685v-9.87c.406.018.809.045 1.208.084 0 0 .094.042.159.075 2.584 1.285 4.812 4.627 6.225 9.206l-.135.026c-2.242.422-4.771.68-7.458.728v-.249zm0 2.159v-.1c2.911-.056 5.65-.352 8.074-.835v.034l.032.098c.668 2.727 1.069 5.794 1.127 9.048H23.9v-8.245zm0 10.056h9.229c-.073 3.377-.514 6.551-1.24 9.345-2.403-.474-5.112-.762-7.989-.816V23.9zm.592 20.243l-.252.016-.34.016V34.24c2.698.048 5.238.306 7.487.731l-.028.088c-1.562 4.8-4.021 8.192-6.867 9.084zm4.28-.746l.258-.275c1.719-1.885 3.171-4.552 4.229-7.743l.381.098c1.889.499 3.485 1.127 4.685 1.848l.183.112a21.188 21.188 0 0 1-9.736 5.96zm11.148-7.64l-.253.328c-1.434-.964-3.458-1.791-5.893-2.414l.056-.209c.768-2.892 1.225-6.131 1.294-9.562h9.051a21.091 21.091 0 0 1-4.255 11.857zm-4.795-13.669c-.069-3.396-.52-6.605-1.272-9.475l-.033-.125c2.467-.636 4.51-1.48 5.939-2.466l.08.104a21.088 21.088 0 0 1 4.336 11.961h-9.05z"/></symbol><symbol id="x" viewBox="0 0 17.156 17.156"><path d="M16.682 2.54L10.69 8.532l5.895 5.896a1.485 1.485 0 1 1-2.102 2.102l-5.896-5.896-6.047 6.048a1.5 1.5 0 1 1-2.121-2.121l6.047-6.048L.47 2.517A1.486 1.486 0 1 1 2.572.415l5.996 5.996L14.561.419a1.5 1.5 0 1 1 2.121 2.121z" class="cls-1"/></symbol><symbol id="years-icon" viewBox="0 0 41 45"><path fill-rule="evenodd" clip-rule="evenodd" d="M0 45h11.564V30H0v15zm14.718 0h11.564V19.286H14.718V45zM29.436 0v45H41V0H29.436z"/></symbol><symbol id="youtube" viewBox="0 0 50 50"><path fill="none" d="M0 0v50h50V0H0z"/><g fill="#FFF"><path d="M15.718 6.782l1.556 5.648h.15l1.483-5.648h2.434l-2.788 8.266v5.856h-2.396v-5.596l-2.856-8.526h2.417zM24.582 19.363c-.282 0-.496-.073-.65-.238-.151-.154-.226-.374-.226-.66V12.79c0-.229.081-.411.239-.553.162-.141.377-.209.637-.209.282 0 .507.068.685.209.17.142.258.323.258.553v5.675c0 .277-.088.502-.258.66-.169.16-.397.238-.685.238zm-3.067-6.496v5.4c0 .885.281 1.587.836 2.112.559.524 1.305.79 2.236.79.967 0 1.727-.255 2.28-.762.547-.511.826-1.205.826-2.1v-5.382c0-.79-.282-1.446-.843-1.948-.565-.5-1.287-.752-2.165-.752-.971 0-1.739.237-2.314.716-.569.476-.856 1.118-.856 1.926zM29.417 10.485h2.126v7.988c0 .246.05.424.136.534.087.114.235.168.435.168.154 0 .354-.072.596-.219.239-.15.454-.334.654-.562v-7.91h2.13v10.419h-2.13v-1.152c-.393.423-.798.751-1.224.971-.429.219-.835.337-1.236.337-.491 0-.862-.16-1.11-.474-.249-.308-.376-.771-.376-1.392v-8.708h-.001z"/></g><g fill="#FFF"><path d="M28.386 31.345a.97.97 0 0 0-.401.093 1.372 1.372 0 0 0-.388.292v5.893c.151.151.301.27.447.332.146.069.298.105.456.105.233 0 .401-.066.512-.204.106-.133.158-.348.158-.651v-4.883c0-.324-.061-.564-.195-.729-.137-.164-.334-.248-.589-.248z"/><path d="M36.766 24.189H13.051a6.826 6.826 0 0 0-6.823 6.828v5.487a6.825 6.825 0 0 0 6.823 6.828h23.715a6.83 6.83 0 0 0 6.829-6.828v-5.487a6.83 6.83 0 0 0-6.829-6.828zm-18.732 4.275h-2.205v10.955h-2.131V28.464h-2.204v-1.866h6.54v1.866zm6.229 10.955h-1.892v-1.04c-.349.385-.708.676-1.091.876-.376.204-.742.302-1.095.302-.443 0-.768-.138-.99-.424-.22-.284-.332-.697-.332-1.264v-7.91h1.894v7.257c0 .225.039.385.117.484.079.104.209.15.385.15.136 0 .312-.063.527-.195.214-.139.408-.307.585-.511v-7.186h1.892v9.461zm6.856-1.951c0 .665-.144 1.177-.441 1.537-.295.361-.727.533-1.286.533-.372 0-.699-.063-.986-.206a2.39 2.39 0 0 1-.809-.638v.725h-1.913V26.598h1.913v4.129a2.94 2.94 0 0 1 .809-.657c.287-.151.579-.225.87-.225.603 0 1.059.199 1.373.604.316.404.471.993.471 1.769v5.25zm6.558-2.551h-3.616v1.78c0 .496.065.844.185 1.039.125.192.341.287.643.287.312 0 .532-.083.657-.246.121-.163.188-.524.188-1.08v-.431h1.943v.485c0 .971-.234 1.7-.716 2.193-.467.488-1.176.73-2.117.73-.848 0-1.516-.257-2.001-.779-.483-.518-.729-1.233-.729-2.145v-4.248c0-.814.265-1.492.803-2.008.532-.515 1.223-.771 2.069-.771.866 0 1.532.238 1.996.716.464.48.695 1.162.695 2.062v2.416z"/><path d="M34.904 31.378c-.301 0-.514.086-.646.264-.132.165-.197.452-.197.849v.954h1.673v-.955c0-.396-.067-.684-.2-.849-.126-.177-.342-.263-.63-.263z"/></g></symbol></svg>