<svg xmlns="http://www.w3.org/2000/svg" width="65.072" height="65.209" viewBox="0 0 65.072 65.209"><path fill="#FFF" d="M60.586 4.741C57.547 1.64 52.749 0 46.715 0 35.4 0 22.283 5.75 14.073 14.309 8.475 20.145 3.605 29.205 1.364 37.953-1.198 47.958-.127 56.004 4.382 60.605c2.951 3.011 7.53 4.604 13.244 4.604h.003c11.159 0 25.144-5.953 33.25-14.156 8.335-8.437 14.172-22.028 14.193-33.056.013-5.664-1.54-10.248-4.486-13.256zm-44.364 41.5s-3.993 1.862-5.649 1.358c-1.354-.41-2.137-4.555-.976-10.074 1.197-5.699 3.246-13.426 9.971-20.958l.014-.014c3.624-3.779 8.353-6.971 13.674-9.231C38.228 5.21 43.47 4.048 48.018 4.048c3.378.001 6.198.634 8.178 1.805.782.542.83 3.484-1.013 6.886-1.841 3.402-7.398 10.938-14.027 16.802-6.63 5.863-21.356 15.401-24.934 16.7zm31.816-.754c-4.502 4.558-11.29 8.388-18.117 10.543a45.2 45.2 0 0 1-.622.122c-2.632.475-5.79.657-7.089.343-1.74-.42-1.331-1.961.041-2.871 1.371-.911 12.312-9.611 18.193-15.611 5.407-5.517 16.493-17.264 19.612-23.681.09-.185.3-.183.318-.002.087.825.118 1.624.117 2.353-.018 9.407-5.255 21.52-12.453 28.804z"/></svg>