<?xml version="1.0" ?><!DOCTYPE svg  PUBLIC '-//W3C//DTD SVG 1.1//EN'  'http://www.w3.org/Graphics/SVG/1.1/DTD/svg11.dtd'><svg enable-background="new 0 0 300.721 392.816" height="392.816px" id="Layer_1" version="1.1" viewBox="0 0 300.721 392.816" width="300.721px" xml:space="preserve" xmlns="http://www.w3.org/2000/svg" xmlns:xlink="http://www.w3.org/1999/xlink"><path d="M124.176,322.98l-69.336,64c-4.23,3.906-9.58,5.836-14.916,5.836c-5.928,0-11.836-2.379-16.172-7.078  c-8.24-8.93-7.684-22.848,1.244-31.09l66.379-61.27l26.988-53.973c5.006,12.461,15.738,23.262,32.627,33.133l-22.059,44.113  C127.498,319.516,125.965,321.328,124.176,322.98z M242.84,88.473c24.441,0,44.223-19.707,44.223-44.246  C287.063,19.68,267.281,0,242.84,0c-24.461,0-44.258,19.68-44.258,44.227C198.582,68.766,218.379,88.473,242.84,88.473z   M297.012,178.719l-32.379-43.406c-0.266,1.27-0.586,2.523-0.992,3.746l-0.371,1.109l-16.602,31.27l9.422,12.633l-24.313,14.148  c-8.592,5-11.502,16.02-6.502,24.613c3.342,5.742,9.375,8.949,15.574,8.949c3.072,0,6.188-0.789,9.037-2.449l41.75-24.297  C302.055,198.965,303.031,186.793,297.012,178.719z M93.637,228.047c0-25.809-21.008-46.805-46.832-46.805  C20.996,181.242,0,202.238,0,228.047c0,25.82,20.996,46.824,46.805,46.824C72.629,274.871,93.637,253.867,93.637,228.047z   M79.637,228.047c0,18.102-14.729,32.824-32.832,32.824C28.717,260.871,14,246.148,14,228.047c0-18.086,14.717-32.805,32.805-32.805  C64.908,195.242,79.637,209.961,79.637,228.047z M183.563,95.406l-110.693,39.27C63.5,138,58.6,148.289,61.922,157.66  c2.619,7.379,9.559,11.988,16.965,11.988c1.998,0,4.029-0.336,6.018-1.043l74.195-26.32l-27.104,62.75  c-7.688,23.941-0.832,38.945,26.764,55.84l26.691,17.406l-33.279,50.902c-6.648,10.168-3.795,23.805,6.375,30.453  c3.715,2.426,7.889,3.586,12.018,3.586c7.178,0,14.215-3.508,18.436-9.961l45.332-69.336c0.002-0.004,0.004-0.008,0.004-0.012  c0.004-0.004,0.008-0.008,0.008-0.008c6.639-10.18,3.77-23.809-6.408-30.449l-30.205-19.699l52.633-99.121  C257.664,119.645,232.529,79.477,183.563,95.406z"/></svg>